<svg width="39" height="65" viewBox="0 0 39 65" fill="none" xmlns="http://www.w3.org/2000/svg">
<path d="M25.0365 47.1312L35.8891 29.6807C35.9246 29.6242 35.9543 29.5649 35.9774 29.5033C37.8515 26.4473 38.841 22.9561 38.841 19.3919C38.841 8.69921 30.1418 0 19.4491 0C8.7564 0 0.0564595 8.69921 0.0564595 19.3919C0.0564595 22.9569 1.04741 26.4494 2.9229 29.5077C2.94462 29.5612 2.96995 29.6134 3.00035 29.664L13.4636 47.1747C5.34128 48.3227 0 51.6625 0 55.7139C0 60.7338 8.53055 64.665 19.4201 64.665C30.3097 64.665 38.8403 60.7331 38.8403 55.7139C38.841 51.6437 33.2507 48.2293 25.0365 47.1312ZM4.87222 28.5298C3.14223 25.7762 2.228 22.6166 2.228 19.3919C2.228 9.89646 9.95292 2.17155 19.4491 2.17155C28.9445 2.17155 36.6694 9.89646 36.6694 19.3919C36.6694 22.6181 35.7552 25.7777 34.0259 28.5298C33.9898 28.5877 33.9601 28.6477 33.9362 28.71L22.4704 47.1443C22.2982 47.4085 22.2641 47.4685 22.0535 47.8145L19.1581 52.4703L4.96922 28.7252C4.94388 28.6579 4.91131 28.592 4.87222 28.5298ZM19.4209 62.4935C9.25585 62.4935 2.17227 58.9198 2.17227 55.7139C2.17227 52.804 7.50703 50.0621 14.6825 49.213L18.2077 55.1131C18.4024 55.4381 18.7513 55.6386 19.1299 55.6415C19.1328 55.6415 19.1364 55.6415 19.1393 55.6415C19.5142 55.6415 19.8631 55.4475 20.0615 55.129L23.7676 49.1703C31.0574 49.96 36.6687 52.7715 36.6687 55.7139C36.6694 58.9205 29.5859 62.4935 19.4209 62.4935Z" fill="#1F99D7"/>
<path d="M26.4719 19.3918C26.4719 15.504 23.3086 12.3408 19.4209 12.3408C15.5331 12.3408 12.3698 15.504 12.3698 19.3918C12.3698 23.2796 15.5331 26.4428 19.4209 26.4428C23.3086 26.4428 26.4719 23.2796 26.4719 19.3918ZM14.5414 19.3918C14.5414 16.7013 16.7303 14.5124 19.4209 14.5124C22.1114 14.5124 24.3003 16.7013 24.3003 19.3918C24.3003 22.0824 22.1121 24.2713 19.4209 24.2713C16.7296 24.2713 14.5414 22.0824 14.5414 19.3918Z" fill="#1F99D7"/>
</svg>
