<svg width="29" height="35" viewBox="0 0 29 35" fill="none" xmlns="http://www.w3.org/2000/svg">
<path d="M27.3836 34.5349H1.01421C0.745222 34.5349 0.487255 34.4136 0.297054 34.1977C0.106854 33.9818 0 33.689 0 33.3837V1.15118C0 0.845874 0.106854 0.553072 0.297054 0.337187C0.487255 0.121302 0.745222 1.92409e-05 1.01421 1.92409e-05H19.2699C19.4034 -0.000856671 19.5357 0.0281815 19.6593 0.0854686C19.7829 0.142756 19.8952 0.227165 19.99 0.333856L28.1037 9.54315C28.1977 9.65072 28.272 9.77829 28.3225 9.91854C28.373 10.0588 28.3986 10.209 28.3978 10.3605V33.3837C28.3978 33.689 28.2909 33.9818 28.1007 34.1977C27.9105 34.4136 27.6526 34.5349 27.3836 34.5349ZM2.02841 32.2326H26.3694V10.8325L18.8541 2.30234H2.02841V32.2326Z" fill="#101820"/>
<line x1="2" y1="16.5" x2="19" y2="16.5" stroke="#565252"/>
<line x1="4.39783" y1="24.4453" x2="21.3978" y2="24.4453" stroke="#565252"/>
<path d="M27.3836 11.5115H19.2699C19.001 11.5115 18.743 11.3902 18.5528 11.1743C18.3626 10.9584 18.2557 10.6656 18.2557 10.3603V1.15103C18.2567 0.923759 18.317 0.701911 18.4289 0.513443C18.5408 0.324974 18.6993 0.178319 18.8845 0.0919583C19.0692 0.00380292 19.2728 -0.0202825 19.4696 0.0227412C19.6663 0.0657649 19.8474 0.17397 19.99 0.333702L28.1037 9.543C28.2444 9.70488 28.3397 9.91045 28.3776 10.1338C28.4156 10.3571 28.3943 10.5881 28.3167 10.7978C28.2406 11.008 28.1114 11.1879 27.9453 11.315C27.7793 11.442 27.5838 11.5104 27.3836 11.5115ZM20.2842 9.20916H24.9394L20.2842 3.92533V9.20916Z" fill="#101820"/>
</svg>
