<svg width="34" height="23" viewBox="0 0 34 23" fill="none" xmlns="http://www.w3.org/2000/svg">
<path d="M33.7201 1.53674C33.7144 1.73849 33.6765 1.93887 33.6087 2.12643C33.5409 2.31399 33.4445 2.48506 33.325 2.62988L17.457 21.8431C17.2156 22.1353 16.8949 22.3029 16.5653 22.3089C16.2357 22.3149 15.9242 22.1589 15.6994 21.8752L0.92311 3.22192C0.811761 3.08141 0.725043 2.91377 0.667908 2.72855C0.610773 2.54334 0.584339 2.34418 0.590117 2.14244C0.595894 1.94071 0.633769 1.74036 0.70158 1.55282C0.76939 1.36529 0.865808 1.19424 0.985328 1.04945C1.10485 0.90466 1.24513 0.788965 1.39816 0.708966C1.5512 0.628965 1.71398 0.586229 1.87723 0.583199C2.04048 0.580168 2.201 0.616904 2.34961 0.691303C2.49822 0.765703 2.63202 0.876314 2.74337 1.01682L16.6717 18.6007L31.6292 0.489021C31.8092 0.270885 32.035 0.120429 32.2779 0.0566969C32.5208 -0.00703754 32.7699 0.0188129 32.9938 0.130979C33.2176 0.243144 33.4061 0.436585 33.5354 0.686819C33.6647 0.937053 33.729 1.23283 33.7201 1.53674Z" fill="#A0A0A0"/>
</svg>
