<svg width="119" height="92" viewBox="0 0 119 92" fill="none" xmlns="http://www.w3.org/2000/svg">
<path d="M116.989 17.8785H116.883C114.841 17.8915 114.525 16.1251 114.489 15.3051V2.47879C114.489 1.10952 113.376 0 112.005 0H75.1958C65.9605 0 62.5151 3.4102 61.6603 4.48075L61.4257 4.80544L61.4238 4.81101L60.6956 5.80549C59.7179 7.14323 58.8649 6.57362 58.4552 6.13575L57.0622 4.40468L56.3731 3.57718C55.2147 2.36561 52.1959 0 46.2122 0H6.99682C5.62241 0 4.50873 1.10952 4.50873 2.47879V15.1418C4.50873 17.359 3.30007 17.8043 2.55886 17.8785H2.00761C1.40421 17.9156 0 18.2644 0 20.8378V81.1916C0 82.6722 1.20494 83.8707 2.69109 83.8707H38.4816C49.8996 83.8707 54.8758 88.1604 56.3675 89.8061L57.2186 90.8563C57.2186 90.8563 59.5037 93.4297 61.9099 90.8563L62.409 90.2737L62.4164 90.27L63.0534 89.5278C63.072 89.5055 63.2247 89.3348 63.4463 89.1085C65.3515 87.2624 70.1135 83.8707 79.4252 83.8707H116.309C117.797 83.8707 119 82.6722 119 81.1916V20.2534C119 18.0714 117.415 17.8896 116.989 17.8785ZM108.947 71.7217C108.947 72.911 107.951 73.8702 106.71 73.8702H76.3635C65.5638 73.8702 61.6436 78.7313 61.6436 78.7313L61.1463 79.3956L60.9135 79.7165C59.8836 81.1099 58.3677 79.7277 58.3602 79.7202L57.6619 78.8501C57.1441 78.2304 53.1773 73.8684 43.577 73.8684H12.2896C11.0549 73.8684 10.0567 72.9073 10.0567 71.7198V7.40855C10.0567 6.2211 11.0549 5.26001 12.2896 5.26001H36.5801C54.6486 5.26001 56.3601 15.485 56.4774 18.4555V63.1814C56.4774 66.432 58.0325 67.0424 58.9096 67.1315H60.2151C61.1091 67.0424 62.53 66.5136 62.53 63.9773V17.8785H62.5151C62.6492 14.1584 64.1056 5.25816 74.9723 5.25816H106.71C107.951 5.25816 108.947 6.21924 108.947 7.40669V71.7217Z" fill="#E58989"/>
</svg>
