<svg width="100" height="95" viewBox="0 0 100 95" fill="none" xmlns="http://www.w3.org/2000/svg">
<path d="M80 15V5C80 3.67392 79.4732 2.40215 78.5355 1.46447C77.5979 0.526784 76.3261 0 75 0C73.6739 0 72.4021 0.526784 71.4645 1.46447C70.5268 2.40215 70 3.67392 70 5V15H30V5C30 3.67392 29.4732 2.40215 28.5355 1.46447C27.5979 0.526784 26.3261 0 25 0C23.6739 0 22.4021 0.526784 21.4645 1.46447C20.5268 2.40215 20 3.67392 20 5V15H0V95H100V15H80ZM90 85H10V25H90V85ZM70.3 47.1L64.3 41.1L46.5 58.9L35.7 48.15L29.7 54.15L46.5 70.95L70.3 47.1Z" fill="#E58989"/>
</svg>
