<svg width="51" height="51" viewBox="0 0 51 51" fill="none" xmlns="http://www.w3.org/2000/svg">
<path d="M31.3506 10.3654C33.6419 10.8116 35.7476 11.93 37.3983 13.5776C39.0491 15.2251 40.1696 17.3268 40.6167 19.6137L31.3506 10.3654ZM31.3506 1C36.111 1.52782 40.55 3.6555 43.9389 7.03367C47.3278 10.4118 49.4652 14.8397 50 19.5903L31.3506 1ZM47.6542 38.2743V45.2983C47.6568 45.9504 47.523 46.5958 47.2613 47.1933C46.9995 47.7907 46.6157 48.327 46.1343 48.7679C45.6528 49.2087 45.0845 49.5443 44.4656 49.7532C43.8467 49.9621 43.1909 50.0397 42.5403 49.981C35.3217 49.1981 28.3879 46.7362 22.2957 42.7931C16.6278 39.1983 11.8224 34.4021 8.22074 28.745C4.25624 22.6369 1.78904 15.6826 1.01904 8.44549C0.960419 7.79803 1.03751 7.14548 1.24541 6.52938C1.45331 5.91329 1.78747 5.34715 2.22659 4.86702C2.66572 4.38688 3.20021 4.00327 3.79601 3.7406C4.39182 3.47793 5.0359 3.34196 5.68725 3.34135H12.7247C13.8632 3.33016 14.9669 3.73254 15.8301 4.47347C16.6933 5.21439 17.2571 6.24332 17.4164 7.36847C17.7134 9.61632 18.2643 11.8234 19.0585 13.9477C19.3741 14.7857 19.4424 15.6964 19.2553 16.572C19.0682 17.4476 18.6336 18.2513 18.0029 18.8879L15.0237 21.8614C18.3631 27.7231 23.2257 32.5765 29.0986 35.9095L32.0778 32.936C32.7157 32.3065 33.5209 31.8727 34.3982 31.6859C35.2754 31.4992 36.1879 31.5674 37.0276 31.8824C39.1559 32.675 41.3672 33.2249 43.6193 33.5213C44.7589 33.6818 45.7996 34.2546 46.5435 35.131C47.2874 36.0073 47.6827 37.126 47.6542 38.2743Z" stroke="#1F99D7" stroke-width="2" stroke-linecap="round" stroke-linejoin="round"/>
</svg>
