<svg width="37" height="34" viewBox="0 0 37 34" fill="none" xmlns="http://www.w3.org/2000/svg">
<path d="M4.03963 9.45914H4.7735L4.77529 6.84556C4.77529 6.41484 5.05683 6.0232 5.47778 5.91576L28.5088 0.0467146C29.1001 -0.151432 29.7183 0.304863 29.7183 0.960235V9.45914H32.9604C35.1839 9.45914 37 11.3434 37 13.6504C37 19.0362 37 24.4225 37 29.8082C37 32.1157 35.1839 34 32.9604 34H4.03963C1.81606 34 0 32.1157 0 29.8082V13.6504C0 11.3434 1.81606 9.45914 4.03963 9.45914ZM6.62319 9.45914H27.8681V2.18167L6.62319 7.59582V9.45914ZM35.1499 20.8428H28.4859V24.8476H35.1499V20.8428ZM27.561 18.9232H35.1499V16.6106H1.85013V29.8082C1.85013 31.0557 2.83729 32.0804 4.03963 32.0804H32.9604C34.1627 32.0804 35.1499 31.0557 35.1499 29.8082V26.7672H27.561C27.0504 26.7672 26.6362 26.3374 26.6362 25.8076V19.8832C26.6362 19.353 27.0504 18.9232 27.561 18.9232ZM1.85013 14.6914H35.1499V13.6504C35.1499 12.403 34.1627 11.3787 32.9604 11.3787H4.03963C2.83729 11.3787 1.85013 12.403 1.85013 13.6504V14.6914Z" fill="black"/>
</svg>
