<svg width="29" height="36" viewBox="0 0 29 36" fill="none" xmlns="http://www.w3.org/2000/svg">
<path d="M27.4977 35.2712H1.49768C1.23246 35.2712 0.97811 35.1486 0.790574 34.9302C0.603037 34.7118 0.497681 34.4156 0.497681 34.1068V1.50235C0.497681 1.19352 0.603037 0.897344 0.790574 0.678968C0.97811 0.460592 1.23246 0.33791 1.49768 0.33791H19.4977C19.6293 0.337024 19.7597 0.366397 19.8816 0.424345C20.0034 0.482293 20.1142 0.567677 20.2077 0.675599L28.2077 9.99115C28.3003 10.1 28.3737 10.229 28.4234 10.3709C28.4732 10.5127 28.4984 10.6647 28.4977 10.8179V34.1068C28.4977 34.4156 28.3923 34.7118 28.2048 34.9302C28.0172 35.1486 27.7629 35.2712 27.4977 35.2712ZM2.49768 32.9424H26.4977V11.2953L19.0877 2.6668H2.49768V32.9424Z" fill="#101820"/>
<path d="M27.4976 11.9822H19.4976C19.2324 11.9822 18.9781 11.8595 18.7905 11.6411C18.603 11.4227 18.4977 11.1266 18.4977 10.8177V1.50218C18.4986 1.27229 18.558 1.04788 18.6684 0.857235C18.7787 0.666592 18.935 0.518244 19.1177 0.430887C19.2998 0.341715 19.5005 0.317352 19.6945 0.360872C19.8885 0.404392 20.067 0.513845 20.2076 0.675421L28.2076 9.99098C28.3464 10.1547 28.4404 10.3627 28.4778 10.5886C28.5151 10.8144 28.4942 11.0482 28.4176 11.2602C28.3426 11.4729 28.2152 11.6549 28.0515 11.7834C27.8878 11.9119 27.6951 11.981 27.4976 11.9822ZM20.4976 9.65329H25.0876L20.4976 4.30849V9.65329Z" fill="#101820"/>
<path d="M15.5 16C15.5 17.9978 14.0962 19.5 12.5 19.5C10.9038 19.5 9.5 17.9978 9.5 16C9.5 14.0022 10.9038 12.5 12.5 12.5C14.0962 12.5 15.5 14.0022 15.5 16Z" stroke="#565252"/>
<circle cx="16.5" cy="20.5" r="4" stroke="#565252"/>
<path d="M15.5 25C15.5 27.5361 13.6609 29.5 11.5 29.5C9.33911 29.5 7.5 27.5361 7.5 25C7.5 22.4639 9.33911 20.5 11.5 20.5C13.6609 20.5 15.5 22.4639 15.5 25Z" stroke="#565252"/>
</svg>
