<svg width="58" height="58" viewBox="0 0 58 58" fill="none" xmlns="http://www.w3.org/2000/svg">
<path d="M39.7407 10.7412H24.7037V11.8153H39.7407V10.7412Z" fill="#1F99D7"/>
<path d="M46.1852 15.0371H24.7037V16.1112H46.1852V15.0371Z" fill="#1F99D7"/>
<path d="M46.1852 27.9258H11.8148V28.9999H46.1852V27.9258Z" fill="#1F99D7"/>
<path d="M46.1852 23.6299H11.8148V24.704H46.1852V23.6299Z" fill="#1F99D7"/>
<path d="M46.1852 19.333H11.8148V20.4071H46.1852V19.333Z" fill="#1F99D7"/>
<path d="M39.7407 6.44434H24.7037V7.51841H39.7407V6.44434Z" fill="#1F99D7"/>
<path d="M52.6296 19.9885V11.8148L40.8148 0H5.37037V20.1281L0 24.7037V34.2533V58H58V36.5722V24.7037L52.6296 19.9885ZM41.8889 2.59281L50.0368 10.7407H41.8889V2.59281ZM3.01922 56.9259L27.1805 37.2381C27.6477 36.8579 28.3104 36.6399 29 36.6399C29.6896 36.6399 30.3533 36.8579 30.8195 37.2381L54.9808 56.9259H3.01922ZM56.9259 25.3009L34.713 37.6409L35.6098 38.3713L56.9259 26.5286V36.5626V57.1257L31.4983 36.4057C30.8109 35.8461 29.9065 35.5669 29 35.5669C28.0935 35.5669 27.188 35.8472 26.5017 36.4057L1.07407 57.1257V34.2243V26.5286L22.3901 38.3702L23.2859 37.6399L1.07407 25.3009V25.1999L5.37037 21.5406V26.6145L6.44444 27.2117V1.07407H40.3701H40.8148V11.8148H51.5556V27.2095L52.6296 26.6123V21.5395L56.9259 25.1989V25.3009Z" fill="#1F99D7"/>
<path d="M21.4815 6.44434H11.8148V16.111H21.4815V6.44434ZM20.4074 15.0369H12.8889V7.51841H20.4074V15.0369Z" fill="#1F99D7"/>
</svg>
