<svg width="154" height="154" viewBox="0 0 154 154" fill="none" xmlns="http://www.w3.org/2000/svg">
<path d="M77 154C119.526 154 154 119.526 154 77C154 34.4741 119.526 0 77 0C34.4741 0 0 34.4741 0 77C0 119.526 34.4741 154 77 154Z" fill="white"/>
<path d="M52.9375 113.094C52.2734 113.094 51.7344 112.555 51.7344 111.891V69.7812H44.5156V111.891C44.5156 112.555 43.9766 113.094 43.3125 113.094C42.6484 113.094 42.1094 112.555 42.1094 111.891V68.5781C42.1094 67.914 42.6484 67.375 43.3125 67.375H52.9375C53.6016 67.375 54.1406 67.914 54.1406 68.5781V111.891C54.1406 112.555 53.6016 113.094 52.9375 113.094Z" fill="#E58989"/>
<path d="M72.1875 113.094C71.5234 113.094 70.9844 112.555 70.9844 111.891V69.7812H63.7656V111.891C63.7656 112.555 63.2266 113.094 62.5625 113.094C61.8984 113.094 61.3594 112.555 61.3594 111.891V68.5781C61.3594 67.914 61.8984 67.375 62.5625 67.375H72.1875C72.8516 67.375 73.3906 67.914 73.3906 68.5781V111.891C73.3906 112.555 72.8516 113.094 72.1875 113.094Z" fill="#E58989"/>
<path d="M91.4375 113.094C90.7734 113.094 90.2344 112.555 90.2344 111.891V69.7812H83.0156V111.891C83.0156 112.555 82.4766 113.094 81.8125 113.094C81.1484 113.094 80.6094 112.555 80.6094 111.891V68.5781C80.6094 67.914 81.1484 67.375 81.8125 67.375H91.4375C92.1016 67.375 92.6406 67.914 92.6406 68.5781V111.891C92.6406 112.555 92.1016 113.094 91.4375 113.094Z" fill="#E58989"/>
<path d="M110.688 113.094C110.023 113.094 109.484 112.555 109.484 111.891V69.7812H102.266V111.891C102.266 112.555 101.727 113.094 101.062 113.094C100.398 113.094 99.8594 112.555 99.8594 111.891V68.5781C99.8594 67.914 100.398 67.375 101.062 67.375H110.688C111.352 67.375 111.891 67.914 111.891 68.5781V111.891C111.891 112.555 111.352 113.094 110.688 113.094Z" fill="#E58989"/>
<path d="M55.3438 69.7812H40.9062C40.2421 69.7812 39.7031 69.2422 39.7031 68.5781V63.7656C39.7031 63.1015 40.2421 62.5625 40.9062 62.5625H55.3438C56.0079 62.5625 56.5469 63.1015 56.5469 63.7656V68.5781C56.5469 69.2422 56.0079 69.7812 55.3438 69.7812ZM42.1094 67.375H54.1406V64.9688H42.1094V67.375Z" fill="#E58989"/>
<path d="M74.5938 69.7812H60.1562C59.4921 69.7812 58.9531 69.2422 58.9531 68.5781V63.7656C58.9531 63.1015 59.4921 62.5625 60.1562 62.5625H74.5938C75.2579 62.5625 75.7969 63.1015 75.7969 63.7656V68.5781C75.7969 69.2422 75.2579 69.7812 74.5938 69.7812ZM61.3594 67.375H73.3906V64.9688H61.3594V67.375Z" fill="#E58989"/>
<path d="M120.312 64.9688H33.6875C33.0234 64.9688 32.4844 64.4297 32.4844 63.7656V58.9531C32.4844 58.289 33.0234 57.75 33.6875 57.75H120.312C120.977 57.75 121.516 58.289 121.516 58.9531V63.7656C121.516 64.4297 120.977 64.9688 120.312 64.9688ZM34.8906 62.5625H119.109V60.1562H34.8906V62.5625Z" fill="#E58989"/>
<path d="M93.8438 69.7812H79.4062C78.7421 69.7812 78.2031 69.2422 78.2031 68.5781V63.7656C78.2031 63.1015 78.7421 62.5625 79.4062 62.5625H93.8438C94.5079 62.5625 95.0469 63.1015 95.0469 63.7656V68.5781C95.0469 69.2422 94.5079 69.7812 93.8438 69.7812ZM80.6094 67.375H92.6406V64.9688H80.6094V67.375Z" fill="#E58989"/>
<path d="M113.094 69.7812H98.6562C97.9921 69.7812 97.4531 69.2422 97.4531 68.5781V63.7656C97.4531 63.1015 97.9921 62.5625 98.6562 62.5625H113.094C113.758 62.5625 114.297 63.1015 114.297 63.7656V68.5781C114.297 69.2422 113.758 69.7812 113.094 69.7812ZM99.8594 67.375H111.891V64.9688H99.8594V67.375Z" fill="#E58989"/>
<path d="M117.906 60.1562H36.0938C35.6077 60.1562 35.1673 59.8627 34.9821 59.4127C34.7944 58.9627 34.8978 58.4454 35.2419 58.1013L68.9294 24.4138C69.3987 23.9446 70.1614 23.9446 70.6307 24.4138C71.0999 24.883 71.0999 25.6458 70.6307 26.115L38.9981 57.75H115.002L77 19.7481L75.4456 21.3025C74.9763 21.7717 74.2136 21.7717 73.7443 21.3025C73.2751 20.8333 73.2751 20.0705 73.7443 19.6013L76.1506 17.1951C76.6198 16.7258 77.3826 16.7258 77.8518 17.1951L118.758 58.1013C119.102 58.4454 119.206 58.9627 119.018 59.4127C118.83 59.8627 118.392 60.1562 117.906 60.1562ZM105.875 55.3437H48.125C47.6389 55.3437 47.1986 55.0502 47.0133 54.6002C46.8256 54.1502 46.9291 53.6329 47.2732 53.2888L76.1482 24.4138C76.6174 23.9446 77.3802 23.9446 77.8494 24.4138L106.724 53.2888C107.069 53.6329 107.172 54.1502 106.984 54.6002C106.797 55.0502 106.361 55.3437 105.875 55.3437ZM51.0293 52.9375H102.971L77 26.9668L51.0293 52.9375Z" fill="#E58989"/>
<path d="M36.0938 69.7812H19.25C18.5859 69.7812 18.0469 69.2422 18.0469 68.5781C18.0469 67.914 18.5859 67.375 19.25 67.375H36.0938C36.7579 67.375 37.2969 67.914 37.2969 68.5781C37.2969 69.2422 36.7579 69.7812 36.0938 69.7812Z" fill="#E58989"/>
<path d="M134.75 69.7812H117.906C117.242 69.7812 116.703 69.2422 116.703 68.5781C116.703 67.914 117.242 67.375 117.906 67.375H134.75C135.414 67.375 135.953 67.914 135.953 68.5781C135.953 69.2422 135.414 69.7812 134.75 69.7812Z" fill="#E58989"/>
<path d="M127.531 127.531C126.867 127.531 126.328 126.992 126.328 126.328V113.094H119.109V116.703C119.109 117.367 118.57 117.906 117.906 117.906C117.242 117.906 116.703 117.367 116.703 116.703V111.891C116.703 111.227 117.242 110.688 117.906 110.688H127.531C128.195 110.688 128.734 111.227 128.734 111.891V126.328C128.734 126.992 128.195 127.531 127.531 127.531Z" fill="#E58989"/>
<path d="M129.938 113.094H115.5C114.836 113.094 114.297 112.555 114.297 111.891C114.297 111.227 114.836 110.688 115.5 110.688H129.938C130.602 110.688 131.141 111.227 131.141 111.891C131.141 112.555 130.602 113.094 129.938 113.094Z" fill="#E58989"/>
<path d="M127.531 108.281H117.906C117.49 108.281 117.103 108.065 116.881 107.711C116.662 107.357 116.643 106.912 116.831 106.541L121.643 96.9164C122.052 96.1006 123.388 96.1006 123.797 96.9164L128.609 106.541C128.795 106.914 128.775 107.357 128.559 107.711C128.335 108.065 127.948 108.281 127.531 108.281ZM119.853 105.875H125.587L122.719 100.143L119.853 105.875Z" fill="#E58989"/>
<path d="M127.531 91.4375H117.906C117.242 91.4375 116.703 90.8985 116.703 90.2344V75.7969C116.703 75.1328 117.242 74.5938 117.906 74.5938H127.531C128.195 74.5938 128.734 75.1328 128.734 75.7969V90.2344C128.734 90.8985 128.195 91.4375 127.531 91.4375ZM119.109 89.0312H126.328V77H119.109V89.0312Z" fill="#E58989"/>
<path d="M127.531 84.2188H117.906C117.242 84.2188 116.703 83.6797 116.703 83.0156C116.703 82.3515 117.242 81.8125 117.906 81.8125H127.531C128.195 81.8125 128.734 82.3515 128.734 83.0156C128.734 83.6797 128.195 84.2188 127.531 84.2188Z" fill="#E58989"/>
<path d="M122.719 91.4375C122.055 91.4375 121.516 90.8985 121.516 90.2344V75.7969C121.516 75.1328 122.055 74.5938 122.719 74.5938C123.383 74.5938 123.922 75.1328 123.922 75.7969V90.2344C123.922 90.8985 123.383 91.4375 122.719 91.4375Z" fill="#E58989"/>
<path d="M26.4688 127.531C25.8046 127.531 25.2656 126.992 25.2656 126.328V111.891C25.2656 111.227 25.8046 110.688 26.4688 110.688H36.0938C36.7579 110.688 37.2969 111.227 37.2969 111.891V116.703C37.2969 117.367 36.7579 117.906 36.0938 117.906C35.4296 117.906 34.8906 117.367 34.8906 116.703V113.094H27.6719V126.328C27.6719 126.992 27.1329 127.531 26.4688 127.531Z" fill="#E58989"/>
<path d="M38.5 113.094H24.0625C23.3984 113.094 22.8594 112.555 22.8594 111.891C22.8594 111.227 23.3984 110.688 24.0625 110.688H38.5C39.1641 110.688 39.7031 111.227 39.7031 111.891C39.7031 112.555 39.1641 113.094 38.5 113.094Z" fill="#E58989"/>
<path d="M36.0937 108.281H26.4687C26.0525 108.281 25.6651 108.065 25.4461 107.711C25.2271 107.357 25.2055 106.912 25.3932 106.541L30.2057 96.9164C30.6147 96.1006 31.9502 96.1006 32.3592 96.9164L37.1717 106.541C37.3594 106.914 37.3378 107.357 37.1188 107.711C36.8998 108.065 36.51 108.281 36.0937 108.281ZM28.4154 105.875H34.1471L31.2812 100.143L28.4154 105.875Z" fill="#E58989"/>
<path d="M36.0938 91.4375H26.4688C25.8046 91.4375 25.2656 90.8985 25.2656 90.2344V75.7969C25.2656 75.1328 25.8046 74.5938 26.4688 74.5938H36.0938C36.7579 74.5938 37.2969 75.1328 37.2969 75.7969V90.2344C37.2969 90.8985 36.7579 91.4375 36.0938 91.4375ZM27.6719 89.0312H34.8906V77H27.6719V89.0312Z" fill="#E58989"/>
<path d="M36.0938 84.2188H26.4688C25.8046 84.2188 25.2656 83.6797 25.2656 83.0156C25.2656 82.3515 25.8046 81.8125 26.4688 81.8125H36.0938C36.7579 81.8125 37.2969 82.3515 37.2969 83.0156C37.2969 83.6797 36.7579 84.2188 36.0938 84.2188Z" fill="#E58989"/>
<path d="M31.2812 91.4375C30.6171 91.4375 30.0781 90.8985 30.0781 90.2344V75.7969C30.0781 75.1328 30.6171 74.5938 31.2812 74.5938C31.9454 74.5938 32.4844 75.1328 32.4844 75.7969V90.2344C32.4844 90.8985 31.9454 91.4375 31.2812 91.4375Z" fill="#E58989"/>
<path d="M62.5625 91.4375H52.9375C52.2734 91.4375 51.7344 90.8985 51.7344 90.2344V75.7969C51.7344 75.1328 52.2734 74.5938 52.9375 74.5938H62.5625C63.2266 74.5938 63.7656 75.1328 63.7656 75.7969V90.2344C63.7656 90.8985 63.2266 91.4375 62.5625 91.4375ZM54.1406 89.0312H61.3594V77H54.1406V89.0312Z" fill="#E58989"/>
<path d="M62.5625 84.2188H52.9375C52.2734 84.2188 51.7344 83.6797 51.7344 83.0156C51.7344 82.3515 52.2734 81.8125 52.9375 81.8125H62.5625C63.2266 81.8125 63.7656 82.3515 63.7656 83.0156C63.7656 83.6797 63.2266 84.2188 62.5625 84.2188Z" fill="#E58989"/>
<path d="M57.75 91.4375C57.0859 91.4375 56.5469 90.8985 56.5469 90.2344V75.7969C56.5469 75.1328 57.0859 74.5938 57.75 74.5938C58.4141 74.5938 58.9531 75.1328 58.9531 75.7969V90.2344C58.9531 90.8985 58.4141 91.4375 57.75 91.4375Z" fill="#E58989"/>
<path d="M81.8125 91.4375H72.1875C71.5234 91.4375 70.9844 90.8985 70.9844 90.2344V75.7969C70.9844 75.1328 71.5234 74.5938 72.1875 74.5938H81.8125C82.4766 74.5938 83.0156 75.1328 83.0156 75.7969V90.2344C83.0156 90.8985 82.4766 91.4375 81.8125 91.4375ZM73.3906 89.0312H80.6094V77H73.3906V89.0312Z" fill="#E58989"/>
<path d="M81.8125 84.2188H72.1875C71.5234 84.2188 70.9844 83.6797 70.9844 83.0156C70.9844 82.3515 71.5234 81.8125 72.1875 81.8125H81.8125C82.4766 81.8125 83.0156 82.3515 83.0156 83.0156C83.0156 83.6797 82.4766 84.2188 81.8125 84.2188Z" fill="#E58989"/>
<path d="M77 91.4375C76.3359 91.4375 75.7969 90.8985 75.7969 90.2344V75.7969C75.7969 75.1328 76.3359 74.5938 77 74.5938C77.6641 74.5938 78.2031 75.1328 78.2031 75.7969V90.2344C78.2031 90.8985 77.6641 91.4375 77 91.4375Z" fill="#E58989"/>
<path d="M101.062 91.4375H91.4375C90.7734 91.4375 90.2344 90.8985 90.2344 90.2344V75.7969C90.2344 75.1328 90.7734 74.5938 91.4375 74.5938H101.062C101.727 74.5938 102.266 75.1328 102.266 75.7969V90.2344C102.266 90.8985 101.727 91.4375 101.062 91.4375ZM92.6406 89.0312H99.8594V77H92.6406V89.0312Z" fill="#E58989"/>
<path d="M101.062 84.2188H91.4375C90.7734 84.2188 90.2344 83.6797 90.2344 83.0156C90.2344 82.3515 90.7734 81.8125 91.4375 81.8125H101.062C101.727 81.8125 102.266 82.3515 102.266 83.0156C102.266 83.6797 101.727 84.2188 101.062 84.2188Z" fill="#E58989"/>
<path d="M96.25 91.4375C95.5859 91.4375 95.0469 90.8985 95.0469 90.2344V75.7969C95.0469 75.1328 95.5859 74.5938 96.25 74.5938C96.9141 74.5938 97.4531 75.1328 97.4531 75.7969V90.2344C97.4531 90.8985 96.9141 91.4375 96.25 91.4375Z" fill="#E58989"/>
<path d="M122.719 127.531C122.055 127.531 121.516 126.992 121.516 126.328V122.719H32.4844V126.328C32.4844 126.992 31.9454 127.531 31.2812 127.531C30.6171 127.531 30.0781 126.992 30.0781 126.328V121.516C30.0781 120.852 30.6171 120.312 31.2812 120.312H122.719C123.383 120.312 123.922 120.852 123.922 121.516V126.328C123.922 126.992 123.383 127.531 122.719 127.531Z" fill="#E58989"/>
<path d="M120.312 122.719H33.6875C33.0234 122.719 32.4844 122.18 32.4844 121.516V116.703C32.4844 116.039 33.0234 115.5 33.6875 115.5H120.312C120.977 115.5 121.516 116.039 121.516 116.703V121.516C121.516 122.18 120.977 122.719 120.312 122.719ZM34.8906 120.312H119.109V117.906H34.8906V120.312Z" fill="#E58989"/>
<path d="M134.75 60.1562H125.125C124.461 60.1562 123.922 59.6172 123.922 58.9531C123.922 58.289 124.461 57.75 125.125 57.75H134.75C135.414 57.75 135.953 58.289 135.953 58.9531C135.953 59.6172 135.414 60.1562 134.75 60.1562Z" fill="#E58989"/>
<path d="M28.875 60.1562H19.25C18.5859 60.1562 18.0469 59.6172 18.0469 58.9531C18.0469 58.289 18.5859 57.75 19.25 57.75H28.875C29.5391 57.75 30.0781 58.289 30.0781 58.9531C30.0781 59.6172 29.5391 60.1562 28.875 60.1562Z" fill="#E58989"/>
<path d="M24.0625 60.1562C23.3984 60.1562 22.8594 59.6173 22.8594 58.9531V42.1094C22.8594 41.4453 23.3984 40.9062 24.0625 40.9062H33.6875C34.3516 40.9062 34.8906 41.4453 34.8906 42.1094V54.1406C34.8906 54.8048 34.3516 55.3438 33.6875 55.3438C33.0234 55.3438 32.4844 54.8048 32.4844 54.1406V43.3125H25.2656V58.9531C25.2656 59.6173 24.7266 60.1562 24.0625 60.1562Z" fill="#E58989"/>
<path d="M36.0938 43.3125H21.6562C20.9921 43.3125 20.4531 42.7735 20.4531 42.1094V37.2969C20.4531 36.6328 20.9921 36.0938 21.6562 36.0938H36.0938C36.7579 36.0938 37.2969 36.6328 37.2969 37.2969V42.1094C37.2969 42.7735 36.7579 43.3125 36.0938 43.3125ZM22.8594 40.9062H34.8906V38.5H22.8594V40.9062Z" fill="#E58989"/>
<path d="M129.938 60.1562C129.273 60.1562 128.734 59.6173 128.734 58.9531V43.3125H121.516V54.1406C121.516 54.8048 120.977 55.3438 120.312 55.3438C119.648 55.3438 119.109 54.8048 119.109 54.1406V42.1094C119.109 41.4453 119.648 40.9062 120.312 40.9062H129.938C130.602 40.9062 131.141 41.4453 131.141 42.1094V58.9531C131.141 59.6173 130.602 60.1562 129.938 60.1562Z" fill="#E58989"/>
<path d="M132.344 43.3125H117.906C117.242 43.3125 116.703 42.7735 116.703 42.1094V37.2969C116.703 36.6328 117.242 36.0938 117.906 36.0938H132.344C133.008 36.0938 133.547 36.6328 133.547 37.2969V42.1094C133.547 42.7735 133.008 43.3125 132.344 43.3125ZM119.109 40.9062H131.141V38.5H119.109V40.9062Z" fill="#E58989"/>
<path d="M28.875 33.6875C28.2109 33.6875 27.6719 33.1485 27.6719 32.4844V25.2656C27.6719 24.6015 28.2109 24.0625 28.875 24.0625H62.5625C63.2266 24.0625 63.7656 24.6015 63.7656 25.2656C63.7656 25.9297 63.2266 26.4688 62.5625 26.4688H30.0781V32.4844C30.0781 33.1485 29.5391 33.6875 28.875 33.6875Z" fill="#E58989"/>
<path d="M125.125 33.6875C124.461 33.6875 123.922 33.1485 123.922 32.4844V26.4688H91.4375C90.7734 26.4688 90.2344 25.9297 90.2344 25.2656C90.2344 24.6015 90.7734 24.0625 91.4375 24.0625H125.125C125.789 24.0625 126.328 24.6015 126.328 25.2656V32.4844C126.328 33.1485 125.789 33.6875 125.125 33.6875Z" fill="#E58989"/>
<path d="M55.3438 33.6875H36.0938C35.4296 33.6875 34.8906 33.1485 34.8906 32.4844C34.8906 31.8203 35.4296 31.2812 36.0938 31.2812H55.3438C56.0079 31.2812 56.5469 31.8203 56.5469 32.4844C56.5469 33.1485 56.0079 33.6875 55.3438 33.6875Z" fill="#E58989"/>
<path d="M117.906 33.6875H98.6562C97.9921 33.6875 97.4531 33.1485 97.4531 32.4844C97.4531 31.8203 97.9921 31.2812 98.6562 31.2812H117.906C118.57 31.2812 119.109 31.8203 119.109 32.4844C119.109 33.1485 118.57 33.6875 117.906 33.6875Z" fill="#E58989"/>
</svg>
