<svg width="118" height="112" viewBox="0 0 118 112" fill="none" xmlns="http://www.w3.org/2000/svg">
<path d="M34.9375 97.0939C34.2734 97.0939 33.7344 96.5549 33.7344 95.8907V53.7814H26.5156V95.8907C26.5156 96.5549 25.9766 97.0939 25.3125 97.0939C24.6484 97.0939 24.1094 96.5549 24.1094 95.8907V52.5782C24.1094 51.9141 24.6484 51.3751 25.3125 51.3751H34.9375C35.6016 51.3751 36.1406 51.9141 36.1406 52.5782V95.8907C36.1406 96.5549 35.6016 97.0939 34.9375 97.0939Z" fill="#E58989"/>
<path d="M54.1875 97.0939C53.5234 97.0939 52.9844 96.5549 52.9844 95.8907V53.7814H45.7656V95.8907C45.7656 96.5549 45.2266 97.0939 44.5625 97.0939C43.8984 97.0939 43.3594 96.5549 43.3594 95.8907V52.5782C43.3594 51.9141 43.8984 51.3751 44.5625 51.3751H54.1875C54.8516 51.3751 55.3906 51.9141 55.3906 52.5782V95.8907C55.3906 96.5549 54.8516 97.0939 54.1875 97.0939Z" fill="#E58989"/>
<path d="M73.4375 97.0939C72.7734 97.0939 72.2344 96.5549 72.2344 95.8907V53.7814H65.0156V95.8907C65.0156 96.5549 64.4766 97.0939 63.8125 97.0939C63.1484 97.0939 62.6094 96.5549 62.6094 95.8907V52.5782C62.6094 51.9141 63.1484 51.3751 63.8125 51.3751H73.4375C74.1016 51.3751 74.6406 51.9141 74.6406 52.5782V95.8907C74.6406 96.5549 74.1016 97.0939 73.4375 97.0939Z" fill="#E58989"/>
<path d="M92.6875 97.0939C92.0234 97.0939 91.4844 96.5549 91.4844 95.8907V53.7814H84.2656V95.8907C84.2656 96.5549 83.7266 97.0939 83.0625 97.0939C82.3984 97.0939 81.8594 96.5549 81.8594 95.8907V52.5782C81.8594 51.9141 82.3984 51.3751 83.0625 51.3751H92.6875C93.3516 51.3751 93.8906 51.9141 93.8906 52.5782V95.8907C93.8906 96.5549 93.3516 97.0939 92.6875 97.0939Z" fill="#E58989"/>
<path d="M37.3438 53.7814H22.9062C22.2421 53.7814 21.7031 53.2424 21.7031 52.5782V47.7657C21.7031 47.1016 22.2421 46.5626 22.9062 46.5626H37.3438C38.0079 46.5626 38.5469 47.1016 38.5469 47.7657V52.5782C38.5469 53.2424 38.0079 53.7814 37.3438 53.7814ZM24.1094 51.3751H36.1406V48.9689H24.1094V51.3751Z" fill="#E58989"/>
<path d="M56.5938 53.7814H42.1562C41.4921 53.7814 40.9531 53.2424 40.9531 52.5782V47.7657C40.9531 47.1016 41.4921 46.5626 42.1562 46.5626H56.5938C57.2579 46.5626 57.7969 47.1016 57.7969 47.7657V52.5782C57.7969 53.2424 57.2579 53.7814 56.5938 53.7814ZM43.3594 51.3751H55.3906V48.9689H43.3594V51.3751Z" fill="#E58989"/>
<path d="M102.312 48.9689H15.6875C15.0234 48.9689 14.4844 48.4299 14.4844 47.7657V42.9532C14.4844 42.2891 15.0234 41.7501 15.6875 41.7501H102.312C102.977 41.7501 103.516 42.2891 103.516 42.9532V47.7657C103.516 48.4299 102.977 48.9689 102.312 48.9689ZM16.8906 46.5626H101.109V44.1564H16.8906V46.5626Z" fill="#E58989"/>
<path d="M75.8438 53.7814H61.4062C60.7421 53.7814 60.2031 53.2424 60.2031 52.5782V47.7657C60.2031 47.1016 60.7421 46.5626 61.4062 46.5626H75.8438C76.5079 46.5626 77.0469 47.1016 77.0469 47.7657V52.5782C77.0469 53.2424 76.5079 53.7814 75.8438 53.7814ZM62.6094 51.3751H74.6406V48.9689H62.6094V51.3751Z" fill="#E58989"/>
<path d="M95.0938 53.7814H80.6562C79.9921 53.7814 79.4531 53.2424 79.4531 52.5782V47.7657C79.4531 47.1016 79.9921 46.5626 80.6562 46.5626H95.0938C95.7579 46.5626 96.2969 47.1016 96.2969 47.7657V52.5782C96.2969 53.2424 95.7579 53.7814 95.0938 53.7814ZM81.8594 51.3751H93.8906V48.9689H81.8594V51.3751Z" fill="#E58989"/>
<path d="M99.9062 44.1564H18.0937C17.6077 44.1564 17.1673 43.8628 16.982 43.4128C16.7943 42.9629 16.8978 42.4455 17.2419 42.1014L50.9294 8.41393C51.3986 7.94471 52.1614 7.94471 52.6306 8.41393C53.0998 8.88314 53.0998 9.64592 52.6306 10.1151L20.9981 41.7501H97.0019L59 3.74821L57.4455 5.30264C56.9763 5.77186 56.2135 5.77186 55.7443 5.30264C55.2751 4.83342 55.2751 4.07064 55.7443 3.60143L58.1506 1.19518C58.6198 0.725957 59.3826 0.725957 59.8518 1.19518L100.758 42.1014C101.102 42.4455 101.206 42.9629 101.018 43.4128C100.83 43.8628 100.392 44.1564 99.9062 44.1564ZM87.875 39.3439H30.125C29.6389 39.3439 29.1986 39.0503 29.0133 38.6003C28.8256 38.1504 28.9291 37.633 29.2732 37.2889L58.1482 8.41393C58.6174 7.94471 59.3802 7.94471 59.8494 8.41393L88.7244 37.2889C89.0685 37.633 89.1719 38.1504 88.9842 38.6003C88.7966 39.0503 88.361 39.3439 87.875 39.3439ZM33.0293 36.9376H84.9706L59 10.967L33.0293 36.9376Z" fill="#E58989"/>
<path d="M18.0938 53.7814H1.25C0.585875 53.7814 0.046875 53.2424 0.046875 52.5782C0.046875 51.9141 0.585875 51.3751 1.25 51.3751H18.0938C18.7579 51.3751 19.2969 51.9141 19.2969 52.5782C19.2969 53.2424 18.7579 53.7814 18.0938 53.7814Z" fill="#E58989"/>
<path d="M116.75 53.7814H99.9062C99.2421 53.7814 98.7031 53.2424 98.7031 52.5782C98.7031 51.9141 99.2421 51.3751 99.9062 51.3751H116.75C117.414 51.3751 117.953 51.9141 117.953 52.5782C117.953 53.2424 117.414 53.7814 116.75 53.7814Z" fill="#E58989"/>
<path d="M109.531 111.531C108.867 111.531 108.328 110.992 108.328 110.328V97.0939H101.109V100.703C101.109 101.367 100.57 101.906 99.9062 101.906C99.2421 101.906 98.7031 101.367 98.7031 100.703V95.8907C98.7031 95.2266 99.2421 94.6876 99.9062 94.6876H109.531C110.195 94.6876 110.734 95.2266 110.734 95.8907V110.328C110.734 110.992 110.195 111.531 109.531 111.531Z" fill="#E58989"/>
<path d="M111.938 97.0939H97.5C96.8359 97.0939 96.2969 96.5549 96.2969 95.8907C96.2969 95.2266 96.8359 94.6876 97.5 94.6876H111.938C112.602 94.6876 113.141 95.2266 113.141 95.8907C113.141 96.5549 112.602 97.0939 111.938 97.0939Z" fill="#E58989"/>
<path d="M109.531 92.2812H99.9063C99.49 92.2812 99.1026 92.0646 98.8812 91.7109C98.6622 91.3572 98.643 90.912 98.8307 90.5415L103.643 80.9165C104.052 80.1008 105.388 80.1008 105.797 80.9165L110.609 90.5415C110.795 90.9144 110.775 91.3572 110.559 91.7109C110.335 92.0646 109.948 92.2812 109.531 92.2812ZM101.853 89.8749H107.587L104.719 84.1433L101.853 89.8749Z" fill="#E58989"/>
<path d="M109.531 75.4376H99.9062C99.2421 75.4376 98.7031 74.8986 98.7031 74.2345V59.797C98.7031 59.1329 99.2421 58.5939 99.9062 58.5939H109.531C110.195 58.5939 110.734 59.1329 110.734 59.797V74.2345C110.734 74.8986 110.195 75.4376 109.531 75.4376ZM101.109 73.0314H108.328V61.0001H101.109V73.0314Z" fill="#E58989"/>
<path d="M109.531 68.2189H99.9062C99.2421 68.2189 98.7031 67.6799 98.7031 67.0157C98.7031 66.3516 99.2421 65.8126 99.9062 65.8126H109.531C110.195 65.8126 110.734 66.3516 110.734 67.0157C110.734 67.6799 110.195 68.2189 109.531 68.2189Z" fill="#E58989"/>
<path d="M104.719 75.4376C104.055 75.4376 103.516 74.8986 103.516 74.2345V59.797C103.516 59.1329 104.055 58.5939 104.719 58.5939C105.383 58.5939 105.922 59.1329 105.922 59.797V74.2345C105.922 74.8986 105.383 75.4376 104.719 75.4376Z" fill="#E58989"/>
<path d="M8.46875 111.531C7.80463 111.531 7.26562 110.992 7.26562 110.328V95.8907C7.26562 95.2266 7.80463 94.6876 8.46875 94.6876H18.0938C18.7579 94.6876 19.2969 95.2266 19.2969 95.8907V100.703C19.2969 101.367 18.7579 101.906 18.0938 101.906C17.4296 101.906 16.8906 101.367 16.8906 100.703V97.0939H9.67188V110.328C9.67188 110.992 9.13287 111.531 8.46875 111.531Z" fill="#E58989"/>
<path d="M20.5 97.0939H6.0625C5.39838 97.0939 4.85938 96.5549 4.85938 95.8907C4.85938 95.2266 5.39838 94.6876 6.0625 94.6876H20.5C21.1641 94.6876 21.7031 95.2266 21.7031 95.8907C21.7031 96.5549 21.1641 97.0939 20.5 97.0939Z" fill="#E58989"/>
<path d="M18.0938 92.2812H8.46877C8.05249 92.2812 7.66508 92.0646 7.44611 91.7109C7.22715 91.3572 7.20549 90.912 7.39318 90.5415L12.2057 80.9165C12.6147 80.1008 13.9502 80.1008 14.3593 80.9165L19.1718 90.5415C19.3595 90.9144 19.3378 91.3572 19.1188 91.7109C18.8999 92.0646 18.5101 92.2812 18.0938 92.2812ZM10.4154 89.8749H16.1471L13.2813 84.1433L10.4154 89.8749Z" fill="#E58989"/>
<path d="M18.0938 75.4376H8.46875C7.80463 75.4376 7.26562 74.8986 7.26562 74.2345V59.797C7.26562 59.1329 7.80463 58.5939 8.46875 58.5939H18.0938C18.7579 58.5939 19.2969 59.1329 19.2969 59.797V74.2345C19.2969 74.8986 18.7579 75.4376 18.0938 75.4376ZM9.67188 73.0314H16.8906V61.0001H9.67188V73.0314Z" fill="#E58989"/>
<path d="M18.0938 68.2189H8.46875C7.80463 68.2189 7.26562 67.6799 7.26562 67.0157C7.26562 66.3516 7.80463 65.8126 8.46875 65.8126H18.0938C18.7579 65.8126 19.2969 66.3516 19.2969 67.0157C19.2969 67.6799 18.7579 68.2189 18.0938 68.2189Z" fill="#E58989"/>
<path d="M13.2812 75.4376C12.6171 75.4376 12.0781 74.8986 12.0781 74.2345V59.797C12.0781 59.1329 12.6171 58.5939 13.2812 58.5939C13.9454 58.5939 14.4844 59.1329 14.4844 59.797V74.2345C14.4844 74.8986 13.9454 75.4376 13.2812 75.4376Z" fill="#E58989"/>
<path d="M44.5625 75.4376H34.9375C34.2734 75.4376 33.7344 74.8986 33.7344 74.2345V59.797C33.7344 59.1329 34.2734 58.5939 34.9375 58.5939H44.5625C45.2266 58.5939 45.7656 59.1329 45.7656 59.797V74.2345C45.7656 74.8986 45.2266 75.4376 44.5625 75.4376ZM36.1406 73.0314H43.3594V61.0001H36.1406V73.0314Z" fill="#E58989"/>
<path d="M44.5625 68.2189H34.9375C34.2734 68.2189 33.7344 67.6799 33.7344 67.0157C33.7344 66.3516 34.2734 65.8126 34.9375 65.8126H44.5625C45.2266 65.8126 45.7656 66.3516 45.7656 67.0157C45.7656 67.6799 45.2266 68.2189 44.5625 68.2189Z" fill="#E58989"/>
<path d="M39.75 75.4376C39.0859 75.4376 38.5469 74.8986 38.5469 74.2345V59.797C38.5469 59.1329 39.0859 58.5939 39.75 58.5939C40.4141 58.5939 40.9531 59.1329 40.9531 59.797V74.2345C40.9531 74.8986 40.4141 75.4376 39.75 75.4376Z" fill="#E58989"/>
<path d="M63.8125 75.4376H54.1875C53.5234 75.4376 52.9844 74.8986 52.9844 74.2345V59.797C52.9844 59.1329 53.5234 58.5939 54.1875 58.5939H63.8125C64.4766 58.5939 65.0156 59.1329 65.0156 59.797V74.2345C65.0156 74.8986 64.4766 75.4376 63.8125 75.4376ZM55.3906 73.0314H62.6094V61.0001H55.3906V73.0314Z" fill="#E58989"/>
<path d="M63.8125 68.2189H54.1875C53.5234 68.2189 52.9844 67.6799 52.9844 67.0157C52.9844 66.3516 53.5234 65.8126 54.1875 65.8126H63.8125C64.4766 65.8126 65.0156 66.3516 65.0156 67.0157C65.0156 67.6799 64.4766 68.2189 63.8125 68.2189Z" fill="#E58989"/>
<path d="M59 75.4376C58.3359 75.4376 57.7969 74.8986 57.7969 74.2345V59.797C57.7969 59.1329 58.3359 58.5939 59 58.5939C59.6641 58.5939 60.2031 59.1329 60.2031 59.797V74.2345C60.2031 74.8986 59.6641 75.4376 59 75.4376Z" fill="#E58989"/>
<path d="M83.0625 75.4376H73.4375C72.7734 75.4376 72.2344 74.8986 72.2344 74.2345V59.797C72.2344 59.1329 72.7734 58.5939 73.4375 58.5939H83.0625C83.7266 58.5939 84.2656 59.1329 84.2656 59.797V74.2345C84.2656 74.8986 83.7266 75.4376 83.0625 75.4376ZM74.6406 73.0314H81.8594V61.0001H74.6406V73.0314Z" fill="#E58989"/>
<path d="M83.0625 68.2189H73.4375C72.7734 68.2189 72.2344 67.6799 72.2344 67.0157C72.2344 66.3516 72.7734 65.8126 73.4375 65.8126H83.0625C83.7266 65.8126 84.2656 66.3516 84.2656 67.0157C84.2656 67.6799 83.7266 68.2189 83.0625 68.2189Z" fill="#E58989"/>
<path d="M78.25 75.4376C77.5859 75.4376 77.0469 74.8986 77.0469 74.2345V59.797C77.0469 59.1329 77.5859 58.5939 78.25 58.5939C78.9141 58.5939 79.4531 59.1329 79.4531 59.797V74.2345C79.4531 74.8986 78.9141 75.4376 78.25 75.4376Z" fill="#E58989"/>
<path d="M104.719 111.531C104.055 111.531 103.516 110.992 103.516 110.328V106.719H14.4844V110.328C14.4844 110.992 13.9454 111.531 13.2812 111.531C12.6171 111.531 12.0781 110.992 12.0781 110.328V105.516C12.0781 104.852 12.6171 104.313 13.2812 104.313H104.719C105.383 104.313 105.922 104.852 105.922 105.516V110.328C105.922 110.992 105.383 111.531 104.719 111.531Z" fill="#E58989"/>
<path d="M102.312 106.719H15.6875C15.0234 106.719 14.4844 106.18 14.4844 105.516V100.703C14.4844 100.039 15.0234 99.5001 15.6875 99.5001H102.312C102.977 99.5001 103.516 100.039 103.516 100.703V105.516C103.516 106.18 102.977 106.719 102.312 106.719ZM16.8906 104.313H101.109V101.906H16.8906V104.313Z" fill="#E58989"/>
<path d="M116.75 44.1564H107.125C106.461 44.1564 105.922 43.6174 105.922 42.9532C105.922 42.2891 106.461 41.7501 107.125 41.7501H116.75C117.414 41.7501 117.953 42.2891 117.953 42.9532C117.953 43.6174 117.414 44.1564 116.75 44.1564Z" fill="#E58989"/>
<path d="M10.875 44.1564H1.25C0.585875 44.1564 0.046875 43.6174 0.046875 42.9532C0.046875 42.2891 0.585875 41.7501 1.25 41.7501H10.875C11.5391 41.7501 12.0781 42.2891 12.0781 42.9532C12.0781 43.6174 11.5391 44.1564 10.875 44.1564Z" fill="#E58989"/>
<path d="M6.0625 44.1564C5.39838 44.1564 4.85938 43.6174 4.85938 42.9532V26.1095C4.85938 25.4454 5.39838 24.9064 6.0625 24.9064H15.6875C16.3516 24.9064 16.8906 25.4454 16.8906 26.1095V38.1407C16.8906 38.8049 16.3516 39.3439 15.6875 39.3439C15.0234 39.3439 14.4844 38.8049 14.4844 38.1407V27.3126H7.26562V42.9532C7.26562 43.6174 6.72662 44.1564 6.0625 44.1564Z" fill="#E58989"/>
<path d="M18.0938 27.3126H3.65625C2.99213 27.3126 2.45312 26.7736 2.45312 26.1095V21.297C2.45312 20.6329 2.99213 20.0939 3.65625 20.0939H18.0938C18.7579 20.0939 19.2969 20.6329 19.2969 21.297V26.1095C19.2969 26.7736 18.7579 27.3126 18.0938 27.3126ZM4.85938 24.9064H16.8906V22.5001H4.85938V24.9064Z" fill="#E58989"/>
<path d="M111.938 44.1564C111.273 44.1564 110.734 43.6174 110.734 42.9532V27.3126H103.516V38.1407C103.516 38.8049 102.977 39.3439 102.312 39.3439C101.648 39.3439 101.109 38.8049 101.109 38.1407V26.1095C101.109 25.4454 101.648 24.9064 102.312 24.9064H111.938C112.602 24.9064 113.141 25.4454 113.141 26.1095V42.9532C113.141 43.6174 112.602 44.1564 111.938 44.1564Z" fill="#E58989"/>
<path d="M114.344 27.3126H99.9062C99.2421 27.3126 98.7031 26.7736 98.7031 26.1095V21.297C98.7031 20.6329 99.2421 20.0939 99.9062 20.0939H114.344C115.008 20.0939 115.547 20.6329 115.547 21.297V26.1095C115.547 26.7736 115.008 27.3126 114.344 27.3126ZM101.109 24.9064H113.141V22.5001H101.109V24.9064Z" fill="#E58989"/>
<path d="M10.875 17.6876C10.2109 17.6876 9.67188 17.1486 9.67188 16.4845V9.26575C9.67188 8.60162 10.2109 8.06262 10.875 8.06262H44.5625C45.2266 8.06262 45.7656 8.60162 45.7656 9.26575C45.7656 9.92987 45.2266 10.4689 44.5625 10.4689H12.0781V16.4845C12.0781 17.1486 11.5391 17.6876 10.875 17.6876Z" fill="#E58989"/>
<path d="M107.125 17.6876C106.461 17.6876 105.922 17.1486 105.922 16.4845V10.4689H73.4375C72.7734 10.4689 72.2344 9.92987 72.2344 9.26575C72.2344 8.60162 72.7734 8.06262 73.4375 8.06262H107.125C107.789 8.06262 108.328 8.60162 108.328 9.26575V16.4845C108.328 17.1486 107.789 17.6876 107.125 17.6876Z" fill="#E58989"/>
<path d="M37.3438 17.6876H18.0938C17.4296 17.6876 16.8906 17.1486 16.8906 16.4845C16.8906 15.8204 17.4296 15.2814 18.0938 15.2814H37.3438C38.0079 15.2814 38.5469 15.8204 38.5469 16.4845C38.5469 17.1486 38.0079 17.6876 37.3438 17.6876Z" fill="#E58989"/>
<path d="M99.9062 17.6876H80.6562C79.9921 17.6876 79.4531 17.1486 79.4531 16.4845C79.4531 15.8204 79.9921 15.2814 80.6562 15.2814H99.9062C100.57 15.2814 101.109 15.8204 101.109 16.4845C101.109 17.1486 100.57 17.6876 99.9062 17.6876Z" fill="#E58989"/>
</svg>
