<svg width="112" height="112" viewBox="0 0 112 112" fill="none" xmlns="http://www.w3.org/2000/svg">
<path d="M42.3476 84.0493C41.1324 84.1024 39.9332 83.7566 38.9328 83.0647C37.9325 82.3727 37.1859 81.3726 36.807 80.2167C36.428 79.0609 36.4375 77.8129 36.8339 76.663C37.2304 75.513 37.992 74.5243 39.0028 73.8476L48.8143 67.3252H32.0901C30.3492 67.3184 28.631 67.7193 27.0729 68.4959L8.06311 77.8614C6.76368 78.4025 5.30766 78.432 3.98737 77.944C2.66708 77.456 1.58026 76.4866 0.94513 75.2305C0.309996 73.9743 0.173565 72.5244 0.563224 71.1718C0.952884 69.8193 1.83979 68.6641 3.04587 67.9384L21.8327 58.5172C24.9381 56.9895 28.3506 56.1888 31.8114 56.1758H57.8453C59.6312 56.1806 61.3686 56.757 62.8032 57.8207C64.2378 58.8844 65.2942 60.3794 65.8176 62.0869C66.3411 63.7943 66.3041 65.6245 65.7122 67.3095C65.1202 68.9944 64.0044 70.4456 62.528 71.4505L45.4694 83.1016C44.5466 83.7218 43.4594 84.0518 42.3476 84.0493Z" fill="#E68989"/>
<path d="M5.55449 111.923C4.52503 111.92 3.51653 111.631 2.64078 111.09C1.76504 110.549 1.05626 109.776 0.592999 108.857C-0.0682262 107.54 -0.181394 106.015 0.278229 104.615C0.737852 103.216 1.73289 102.055 3.04587 101.386L25.3447 90.2371C26.1214 89.8391 26.9807 89.6291 27.8533 89.6239H48.9815C52.2733 89.6257 55.4924 88.6561 58.2355 86.8365L102.833 57.1233C103.437 56.6367 104.136 56.2815 104.885 56.0805C105.635 55.8795 106.417 55.837 107.184 55.9558C107.95 56.0746 108.684 56.352 109.337 56.7704C109.99 57.1887 110.549 57.7388 110.977 58.3854C111.406 59.032 111.695 59.7608 111.825 60.5254C111.956 61.29 111.926 62.0734 111.736 62.8256C111.547 63.5778 111.203 64.2822 110.726 64.8938C110.248 65.5054 109.649 66.0106 108.965 66.3773L64.3677 96.0905C59.7947 99.1398 54.4222 100.769 48.9257 100.773H29.1913L8.06311 111.309C7.29202 111.722 6.42904 111.933 5.55449 111.923Z" fill="#E68989"/>
<path d="M62.4165 1.20895L67.6567 17.1526H84.8268C85.2035 17.1674 85.5667 17.2975 85.867 17.5254C86.1673 17.7534 86.3904 18.0681 86.506 18.427C86.6215 18.7858 86.6241 19.1716 86.5132 19.5319C86.4023 19.8923 86.1833 20.2099 85.886 20.4417L72.4509 30.8664L77.4682 46.8658C77.585 47.2229 77.5861 47.6078 77.4713 47.9656C77.3565 48.3234 77.1317 48.6357 76.8289 48.8582C76.5261 49.0807 76.1608 49.2018 75.7851 49.2045C75.4094 49.2071 75.0424 49.091 74.7366 48.8727L60.6883 39.0612L46.863 48.8727C46.5519 49.0766 46.1862 49.1814 45.8143 49.1732C45.4424 49.165 45.0817 49.0443 44.7798 48.8269C44.4779 48.6096 44.249 48.3058 44.1233 47.9557C43.9976 47.6056 43.981 47.2256 44.0757 46.8658L49.1486 30.8664L35.4906 20.4417C35.1933 20.2099 34.9743 19.8923 34.8634 19.5319C34.7525 19.1716 34.755 18.7858 34.8706 18.427C34.9862 18.0681 35.2092 17.7534 35.5096 17.5254C35.8099 17.2975 36.173 17.1674 36.5498 17.1526H53.7199L58.9601 1.20895C59.0895 0.854554 59.3246 0.548491 59.6338 0.332238C59.9429 0.115986 60.311 0 60.6883 0C61.0656 0 61.4337 0.115986 61.7428 0.332238C62.0519 0.548491 62.2871 0.854554 62.4165 1.20895Z" fill="#E68989"/>
</svg>
