<svg width="22" height="19" viewBox="0 0 22 19" fill="none" xmlns="http://www.w3.org/2000/svg">
<path d="M15.8583 0.845665C18.763 0.845665 21.1234 3.11358 21.1234 5.91416C21.1234 7.35289 20.499 8.64884 19.5021 9.57139L11 17.7974L2.34896 9.42312C1.44375 8.51156 0.882292 7.27601 0.882292 5.91416C0.882292 3.11358 3.23698 0.845665 6.1474 0.845665C8.33594 0.845665 10.2094 2.13064 11.0057 3.96474C11.7906 2.13613 13.6698 0.845665 15.8583 0.845665ZM15.8583 0C13.9219 0 12.1458 0.86763 11 2.29538C9.85417 0.86763 8.07812 0 6.14167 0C2.75573 0 0 2.65231 0 5.91416C0 7.44624 0.607292 8.90144 1.71302 10.0107L10.3755 18.396L11 19L11.6245 18.396L20.1208 10.1699C21.324 9.0552 22 7.5396 22 5.91416C22 2.65231 19.2443 0 15.8583 0Z" fill="white"/>
</svg>
