<svg width="81" height="49" viewBox="0 0 81 49" fill="none" xmlns="http://www.w3.org/2000/svg">
<path d="M16.3362 27.4958C16.3362 28.1428 16.6598 28.4662 17.3067 28.4662C18.439 28.4662 19.086 27.4957 19.2477 26.04C18.9242 26.04 18.9242 26.04 18.6007 26.04C17.145 26.04 16.3362 26.5253 16.3362 27.4958Z" fill="white"/>
<path d="M57.743 27.4958C57.743 28.1428 58.0665 28.4662 58.7134 28.4662C59.8457 28.4662 60.4927 27.4957 60.6544 26.04C60.3309 26.04 60.3309 26.04 60.0074 26.04C58.3899 26.04 57.743 26.5253 57.743 27.4958Z" fill="white"/>
<path d="M38.0101 22.6445C37.2014 22.6445 36.5544 23.2915 36.3926 24.4237H39.304C39.304 24.1002 39.6275 22.6445 38.0101 22.6445Z" fill="white"/>
<path d="M73.1088 22.9678C71.9766 22.9678 71.0061 24.4234 71.0061 26.3644C71.0061 27.6583 71.4913 28.3053 72.3001 28.3053C73.594 28.3053 74.4027 26.8497 74.4027 24.9087C74.5645 23.6148 74.0793 22.9678 73.1088 22.9678Z" fill="white"/>
<path d="M56.2873 0C50.141 0 44.4799 2.26441 40.1128 6.14629C35.9074 2.26441 30.2464 0 24.1001 0C10.837 0 0 10.837 0 24.1001C0 37.3632 10.837 48.2 24.1001 48.2C30.2464 48.2 35.9074 45.9356 40.1128 42.0537C44.3181 45.9356 49.9792 48.2 56.2873 48.2C69.5504 48.2 80.3873 37.3632 80.3873 24.1001C80.3873 10.837 69.5504 0 56.2873 0ZM10.1899 30.5699L11.6457 21.1886L8.24896 30.5699H6.4698L6.3081 21.1886L4.69065 30.5699H2.26447L4.36714 18.2772H8.08725L8.24896 25.8792L10.8369 18.2772H14.8806L12.7779 30.5699H10.1899ZM18.9242 30.5699V29.5993C18.2772 30.4081 17.3067 30.7316 16.1745 30.7316C14.7188 30.7316 13.7483 29.5993 13.7483 27.9819C13.7483 25.5557 15.3658 24.1001 18.2772 24.1001C18.6007 24.1001 18.9242 24.1001 19.4094 24.1001C19.5712 23.7766 19.5711 23.6148 19.5711 23.453C19.5711 22.8061 19.0859 22.4826 17.9537 22.4826C16.6597 22.4826 15.6893 22.8061 15.2041 22.9678C15.2041 22.8061 15.5275 20.7034 15.5275 20.7034C16.8214 20.3799 17.6302 20.2181 18.6007 20.2181C20.8651 20.2181 21.9973 21.1886 21.9973 23.1295C21.9973 23.6148 21.9973 24.2618 21.8356 25.0705C21.6738 26.5262 21.1886 29.5993 21.0269 30.4081C20.7034 30.5698 18.9242 30.5699 18.9242 30.5699ZM26.6879 24.5853C27.9819 25.2323 28.4671 26.041 28.4671 27.335C28.4671 29.5994 27.1731 30.7316 24.4235 30.7316C22.806 30.7316 22.3209 30.5698 21.6739 30.4081C21.6739 30.2463 21.9973 28.1437 21.9973 28.1437C22.806 28.4672 23.6147 28.4671 24.4235 28.4671C25.3939 28.4671 25.8792 28.1436 25.8792 27.4967C25.8792 27.0114 25.7175 26.8497 24.5853 26.3644C23.1296 25.7174 22.6443 24.9087 22.6443 23.6147C22.6443 21.8355 23.6148 20.2181 26.5262 20.2181C27.1732 20.2181 28.1436 20.3798 28.7906 20.3798L28.4671 22.6443C27.8201 22.4826 27.1732 22.4826 26.5262 22.4826C25.7175 22.4826 25.2322 22.8061 25.2322 23.2913C25.3939 23.9383 25.5557 24.1 26.6879 24.5853ZM32.349 28.3054C32.6725 28.3054 32.8343 28.3054 32.996 28.1437L32.6725 30.4081C32.0255 30.5698 31.3785 30.7316 30.7316 30.7316C29.4376 30.7316 28.6289 29.9228 28.6289 28.4671C28.6289 27.9819 28.7907 26.8497 28.9524 25.8792C29.1142 24.9087 30.0845 19.0859 30.0845 19.0859H32.6725L32.349 20.5416H33.643L33.3194 22.9678H32.0255C31.702 24.9088 31.2168 27.1732 31.2168 27.4967C31.5403 27.9819 31.8638 28.3054 32.349 28.3054ZM38.4953 28.4671C39.4658 28.4671 40.2745 28.3054 41.245 27.8202L40.7598 30.2463C39.7893 30.5698 38.9806 30.5699 38.0101 30.5699C35.0987 30.5699 33.643 29.1141 33.643 26.2027C33.643 22.8061 35.5839 20.2181 38.1718 20.2181C40.2745 20.2181 41.7302 21.6739 41.7302 23.7765C41.7302 24.5853 41.5684 25.2323 41.4067 26.2027H36.2309C36.0692 27.8202 37.0396 28.4671 38.4953 28.4671ZM44.3182 30.5699H41.7302L41.892 29.9228C42.3772 26.8497 42.8625 23.7765 43.186 20.7034H45.6121C45.6121 21.1886 45.4503 21.6739 45.4503 22.1591C46.2591 21.0269 46.9061 20.3799 48.0383 20.5416C47.7148 21.0269 47.2295 22.1591 47.0678 23.453C45.4503 23.2913 45.2887 24.4235 44.3182 30.5699ZM54.3463 30.4081C53.3758 30.7315 52.7289 30.7316 52.0819 30.7316C49.3323 30.7316 47.5531 28.6289 47.5531 25.394C47.5531 21.0269 49.9792 17.9537 53.5376 17.9537C54.6698 17.9537 55.9638 18.4389 56.4491 18.6007L55.9638 21.1886C54.9933 20.7033 54.3464 20.5416 53.6994 20.5416C51.7584 20.5416 50.3027 22.4826 50.3027 25.0705C50.3027 26.8497 51.2731 27.9819 52.7289 27.9819C53.3758 27.9819 54.0229 27.8202 54.9933 27.335L54.3463 30.4081ZM62.4336 30.5699C62.1101 30.5699 60.3309 30.5699 60.3309 30.5699V29.5993C59.6839 30.4081 58.7134 30.7316 57.5812 30.7316C56.1255 30.7316 55.155 29.5993 55.155 27.9819C55.155 25.5557 56.7726 24.1001 59.684 24.1001C60.0075 24.1001 60.3309 24.1001 60.8161 24.1001C60.9779 23.7766 60.9779 23.6148 60.9779 23.453C60.9779 22.8061 60.4927 22.4826 59.3605 22.4826C58.0665 22.4826 57.096 22.8061 56.6108 22.9678C56.6108 22.8061 56.9343 20.7034 56.9343 20.7034C58.2282 20.3799 59.0369 20.2181 60.0074 20.2181C62.2718 20.2181 63.4041 21.1886 63.4041 23.1295C63.4041 23.6148 63.404 24.2618 63.2423 25.0705C62.9188 26.6879 62.4336 29.7611 62.4336 30.5699ZM65.992 30.5699H63.4041L63.5658 29.9228C64.051 26.8497 64.5362 23.7765 64.8597 20.7034H67.2859C67.2859 21.1886 67.1242 21.6739 67.1242 22.1591C67.9329 21.0269 68.5799 20.3799 69.7121 20.5416C69.3886 21.0269 68.9034 22.1591 68.7417 23.453C67.1242 23.2913 66.8007 24.4235 65.992 30.5699ZM73.7557 30.5699L73.9175 29.5993C73.2705 30.4081 72.4618 30.7316 71.4913 30.7316C69.5504 30.7316 68.2564 29.1142 68.2564 26.5262C68.2564 23.2913 70.1973 20.3798 72.4618 20.3798C73.4322 20.3798 74.241 20.8652 74.8879 21.6739L75.535 18.1155H78.1228L76.1819 30.4081H73.7557V30.5699Z" fill="white"/>
</svg>
