<svg width="33" height="37" viewBox="0 0 33 37" fill="none" xmlns="http://www.w3.org/2000/svg">
<path d="M31.8367 36.9153H1.59056C1.28203 36.9153 0.986137 36.7865 0.767973 36.5572C0.549809 36.3279 0.427246 36.0169 0.427246 35.6927V1.45992C0.427246 1.13567 0.549809 0.824697 0.767973 0.595416C0.986137 0.366134 1.28203 0.237325 1.59056 0.237325H22.5302C22.6833 0.236395 22.8351 0.267235 22.9768 0.328077C23.1186 0.388919 23.2475 0.478566 23.3562 0.591879L32.6627 10.3727C32.7705 10.4869 32.8558 10.6224 32.9137 10.7713C32.9716 10.9203 33.0009 11.0798 33.0001 11.2407V35.6927C33.0001 36.0169 32.8775 36.3279 32.6593 36.5572C32.4412 36.7865 32.1453 36.9153 31.8367 36.9153ZM2.75388 34.4701H30.6734V11.742L22.0533 2.68252H2.75388V34.4701Z" fill="#101820"/>
<path d="M23.9849 31.7292H18.3297V26.2104H15.0982V31.7292H9.44302V22.8142C9.44302 22.5798 9.62358 22.3896 9.84696 22.3896C10.0703 22.3896 10.2509 22.5798 10.2509 22.8142V30.8801H14.2903V25.3613H19.1376V30.8801H23.177V23.2387C23.177 23.0044 23.3575 22.8142 23.5809 22.8142C23.8043 22.8142 23.9849 23.0044 23.9849 23.2387V31.7292Z" fill="black"/>
<path d="M26.0046 22.8145C25.904 22.8145 25.8038 22.7755 25.7254 22.6969L16.7139 13.638L7.70245 22.6969C7.54128 22.8587 7.28559 22.8531 7.13128 22.6838C6.97698 22.5144 6.98304 22.2456 7.1438 22.0835L16.7139 12.4629L26.2837 22.0831C26.4445 22.2452 26.4505 22.5139 26.2962 22.6833C26.217 22.7704 26.1112 22.8145 26.0046 22.8145Z" fill="black"/>
<path d="M22.7731 17.7196C22.5497 17.7196 22.3691 17.5295 22.3691 17.2951V14.748H19.9455C19.7221 14.748 19.5415 14.5578 19.5415 14.3235C19.5415 14.0891 19.7221 13.8989 19.9455 13.8989H23.177V17.2951C23.177 17.5295 22.9964 17.7196 22.7731 17.7196Z" fill="black"/>
<path d="M31.8367 12.4635H22.5302C22.2217 12.4635 21.9258 12.3347 21.7076 12.1054C21.4895 11.8761 21.3669 11.5652 21.3669 11.2409V1.46013C21.3681 1.21875 21.4372 0.98314 21.5655 0.782976C21.6939 0.582812 21.8757 0.427056 22.0882 0.335337C22.3 0.241711 22.5335 0.216131 22.7592 0.261824C22.9849 0.307518 23.1926 0.422437 23.3562 0.592082L32.6627 10.3729C32.8241 10.5448 32.9335 10.7631 32.9769 11.0003C33.0204 11.2375 32.9961 11.4829 32.907 11.7055C32.8197 11.9288 32.6715 12.1199 32.4811 12.2548C32.2906 12.3897 32.0664 12.4623 31.8367 12.4635ZM23.6935 10.0183H29.0332L23.6935 4.40659V10.0183Z" fill="#101820"/>
</svg>
