<svg width="128" height="131" viewBox="0 0 128 131" fill="none" xmlns="http://www.w3.org/2000/svg">
<path d="M127.204 0.635402C126.357 -0.211801 124.987 -0.211801 124.14 0.635402L116.108 8.66758H65.6593L2.23826 72.6108C0.7952 74.0539 0 75.9758 0 78.0169C0 80.058 0.7952 81.9799 2.23826 83.4229L46.5831 127.768C48.0717 129.256 50.024 130.002 51.9805 130.002C53.9458 130.002 55.911 129.25 57.4169 127.746L119.172 64.3229V11.7314L127.204 3.6992C128.051 2.852 128.051 1.4826 127.204 0.635402ZM114.838 62.5635L54.3315 124.704C53.0401 125.995 50.9383 125.995 49.6469 124.704L5.30206 80.3591C4.01067 79.0677 4.01067 76.966 5.30856 75.6681L67.4664 13.0011H111.774L101.302 23.473C99.5886 22.3377 97.541 21.6681 95.3374 21.6681C89.3636 21.6681 84.5036 26.5282 84.5036 32.5019C84.5036 38.4757 89.3636 43.3357 95.3374 43.3357C101.311 43.3357 106.171 38.4757 106.171 32.5019C106.171 30.2983 105.502 28.2507 104.366 26.5368L114.838 16.0649V62.5635ZM101.838 32.5019C101.838 36.0857 98.9212 39.0022 95.3374 39.0022C91.7536 39.0022 88.8371 36.0857 88.8371 32.5019C88.8371 28.9181 91.7536 26.0016 95.3374 26.0016C96.3384 26.0016 97.2745 26.2487 98.1217 26.6538L93.8055 30.97C92.9583 31.8172 92.9583 33.1866 93.8055 34.0338C94.228 34.4563 94.7827 34.6687 95.3374 34.6687C95.8921 34.6687 96.4468 34.4563 96.8693 34.0338L101.185 29.7176C101.593 30.5648 101.838 31.5009 101.838 32.5019Z" fill="#E58989"/>
<path d="M90.4558 67.779L67.4751 90.7618C66.6279 91.609 66.6279 92.9784 67.4751 93.8256C67.8976 94.2481 68.4523 94.4605 69.007 94.4605C69.5617 94.4605 70.1164 94.2481 70.5389 93.8256L93.5196 70.8428C94.3668 69.9956 94.3668 68.6262 93.5196 67.779C92.6724 66.9318 91.303 66.934 90.4558 67.779Z" fill="#E58989"/>
<path d="M98.1108 60.1065C97.7187 60.516 97.4825 61.0794 97.4825 61.6449C97.4825 62.23 97.7187 62.7911 98.1108 63.1833C98.5204 63.5928 99.0837 63.8117 99.6492 63.8117C100.213 63.8117 100.776 63.5928 101.164 63.1833C101.575 62.7911 101.816 62.23 101.816 61.6449C101.816 61.0794 101.578 60.516 101.164 60.1065C100.362 59.3048 98.9342 59.3048 98.1108 60.1065Z" fill="#E58989"/>
<path d="M79.7303 41.7323C80.5775 40.8851 80.5775 39.5157 79.7303 38.6685C78.8831 37.8213 77.5137 37.8213 76.6665 38.6685L53.6837 61.6513C52.8365 62.4985 52.8365 63.8679 53.6837 64.7151C54.1062 65.1376 54.6609 65.35 55.2156 65.35C55.7703 65.35 56.325 65.1376 56.7475 64.7151L79.7303 41.7323Z" fill="#E58989"/>
<path d="M72.0707 67.779C72.4932 68.2015 73.0479 68.4139 73.6026 68.4139C74.1573 68.4139 74.712 68.2015 75.1345 67.779L90.4556 52.4579C91.3028 51.6107 91.3028 50.2413 90.4556 49.3941C89.6084 48.5469 88.2391 48.5469 87.3919 49.3941L72.0707 64.7152C71.2235 65.5624 71.2235 66.934 72.0707 67.779Z" fill="#E58989"/>
<path d="M59.8134 76.9703L56.7496 80.0341C55.9024 80.8813 55.9024 82.2507 56.7496 83.0979C57.1721 83.5204 57.7268 83.7327 58.2815 83.7327C58.8362 83.7327 59.3909 83.5204 59.8134 83.0979L62.8772 80.0341C63.7244 79.1869 63.7244 77.8175 62.8772 76.9703C62.03 76.1231 60.6584 76.1252 59.8134 76.9703Z" fill="#E58989"/>
<path d="M36.8306 62.2841C37.3853 62.2841 37.9399 62.0717 38.3625 61.6492L61.3431 38.6686C62.1903 37.8214 62.1903 36.452 61.3431 35.6048C60.4959 34.7576 59.1265 34.7576 58.2793 35.6048L35.2987 58.5854C34.4515 59.4326 34.4515 60.802 35.2987 61.6492C35.7212 62.0717 36.2759 62.2841 36.8306 62.2841Z" fill="#E58989"/>
<path d="M67.4729 31.6353C68.0363 31.6353 68.6018 31.4186 69.0113 31.0069C69.4035 30.5974 69.6397 30.0557 69.6397 29.4685C69.6397 28.9052 69.4035 28.3418 68.9896 27.9301C68.1879 27.1284 66.7579 27.1284 65.9345 27.9518C65.5445 28.344 65.3062 28.9052 65.3062 29.4685C65.3062 30.0319 65.5445 30.5974 65.9345 31.0069C66.3462 31.4186 66.9096 31.6353 67.4729 31.6353Z" fill="#E58989"/>
<path d="M47.5604 67.7769C47.1487 68.1865 46.9321 68.7281 46.9321 69.3153C46.9321 69.9004 47.1487 70.442 47.5604 70.8299C47.9504 71.2416 48.5116 71.4821 49.0988 71.4821C49.6622 71.4821 50.2255 71.2437 50.6134 70.8537C51.0251 70.442 51.2656 69.8787 51.2656 69.3153C51.2656 68.7498 51.0272 68.1865 50.6134 67.7769C49.8139 66.9752 48.36 66.9752 47.5604 67.7769Z" fill="#E58989"/>
<path d="M69.0113 73.9065C69.4035 73.5165 69.6397 72.9553 69.6397 72.3681C69.6397 71.8047 69.4035 71.2414 69.0113 70.8297C68.1879 70.028 66.7579 70.028 65.9345 70.8297C65.5445 71.2414 65.3062 71.8047 65.3062 72.3681C65.3062 72.9553 65.5445 73.497 65.9345 73.9065C66.3462 74.3182 66.9096 74.5348 67.4729 74.5348C68.0363 74.5348 68.5996 74.3203 69.0113 73.9065Z" fill="#E58989"/>
<path d="M52.3316 103.197C53.6641 101.184 54.3012 98.7744 54.0953 96.3238C53.9263 94.2783 52.9404 92.4301 51.3219 91.117C49.6643 89.7758 47.4889 89.1605 45.3893 89.4248L39.318 90.1832L30.9847 81.8498C33.3985 80.7036 36.3691 81.1045 38.3647 83.1C39.2119 83.9472 40.5813 83.9472 41.4285 83.1C42.2757 82.2528 42.2757 80.8834 41.4285 80.0362C37.7298 76.3376 31.9987 75.8804 27.793 78.6603L26.1051 76.9724C25.2579 76.1252 23.8885 76.1252 23.0413 76.9724C22.1941 77.8196 22.1941 79.189 23.0413 80.0362L24.7336 81.7285C23.4032 83.7392 22.7662 86.1508 22.972 88.6014C23.141 90.6447 24.1269 92.4951 25.7433 93.806C27.4009 95.1472 29.5633 95.7647 31.678 95.5026L37.7493 94.7442L46.061 103.056C43.6537 104.141 40.6224 103.745 38.7027 101.825C37.8555 100.978 36.4861 100.978 35.6389 101.825C34.7917 102.67 34.7917 104.042 35.6389 104.889C37.6821 106.934 40.4036 108.063 43.2984 108.063C45.4565 108.063 47.5149 107.433 49.2721 106.267L50.6199 107.615C51.0424 108.037 51.5971 108.25 52.1518 108.25C52.7064 108.25 53.2611 108.037 53.6836 107.615C54.5308 106.768 54.5308 105.398 53.6836 104.551L52.3316 103.197ZM31.1407 91.2037C30.1917 91.3207 29.2144 91.0477 28.4734 90.441C27.7822 89.8777 27.3597 89.0976 27.2882 88.2396C27.1929 87.0782 27.4399 85.945 27.9274 84.9201L33.8686 90.8614L31.1407 91.2037ZM45.9267 93.7237C46.8649 93.5958 47.8464 93.8797 48.5896 94.4842C49.283 95.0475 49.7055 95.8276 49.777 96.6856C49.8723 97.847 49.6253 98.9802 49.1356 100.005L43.1965 94.066L45.9267 93.7237Z" fill="#E58989"/>
</svg>
