<svg width="40" height="42" viewBox="0 0 40 42" fill="none" xmlns="http://www.w3.org/2000/svg">
<path d="M30.4618 23.1688C30.5024 22.961 30.6765 22.8118 30.8785 22.8118H34.2504V19.0265H30.8785C30.6765 19.0265 30.5024 18.8773 30.4618 18.6695C30.1891 17.2764 29.6695 15.9657 28.9172 14.774C28.8051 14.5963 28.828 14.3603 28.9716 14.2099L31.3549 11.7169L28.7946 9.03852L26.4084 11.5346C26.2658 11.6839 26.043 11.7076 25.8746 11.5914C24.7345 10.804 23.4812 10.2605 22.1493 9.97588C21.9511 9.93351 21.8086 9.75037 21.8086 9.53774V6.01221H18.1859V9.53774C18.1859 9.75037 18.0435 9.93351 17.8452 9.97588C16.5136 10.2604 15.2599 10.804 14.119 11.5915C13.9507 11.7074 13.7279 11.684 13.5852 11.5345L11.1997 9.03852L8.63936 11.7169L11.0227 14.2099C11.1664 14.3603 11.1892 14.5965 11.077 14.7742C10.3254 15.9641 9.80568 17.2747 9.53262 18.6696C9.49185 18.8774 9.31778 19.0266 9.11591 19.0266H5.7439V22.8124H9.11582C9.31778 22.8124 9.49185 22.9615 9.53253 23.1693C9.80514 24.5618 10.3248 25.8725 11.0771 27.065C11.1891 27.2427 11.1663 27.4788 11.0226 27.629L8.63927 30.1214L11.1996 32.7997L13.5859 30.3036C13.7287 30.1543 13.9516 30.1306 14.1198 30.2469C15.2583 31.0337 16.5118 31.5773 17.8453 31.8631C18.0435 31.9054 18.1858 32.0886 18.1858 32.3012V35.8263H21.8085V32.3012C21.8085 32.0886 21.9508 31.9055 22.149 31.8631C23.4826 31.5774 24.7359 31.0337 25.8744 30.2469C26.0428 30.1305 26.2656 30.1542 26.4083 30.3036L28.7945 32.7997L31.3548 30.1214L28.9717 27.629C28.8279 27.4788 28.805 27.2427 28.9171 27.065C29.6696 25.8725 30.1892 24.5616 30.4618 23.1688ZM19.9976 28.191C16.1654 28.191 13.0478 24.9291 13.0478 20.9196C13.0478 16.9099 16.1654 13.6479 19.9976 13.6479C23.8296 13.6479 26.9472 16.9099 26.9472 20.9196C26.9472 24.9292 23.8296 28.191 19.9976 28.191Z" fill="black"/>
<path d="M20.3899 21.4482V23.63C20.6573 23.5689 20.8755 23.4357 21.0429 23.2302C21.212 23.0247 21.2956 22.7831 21.2956 22.504C21.2956 22.2563 21.2246 22.0417 21.0825 21.8625C20.9427 21.6821 20.7116 21.5454 20.3899 21.4482Z" fill="black"/>
<path d="M19.1209 18.0804C18.9988 18.2588 18.9391 18.4545 18.9391 18.6697C18.9391 18.8655 18.9935 19.048 19.1043 19.2175C19.2152 19.3846 19.3863 19.5217 19.6154 19.6241V17.6958C19.4063 17.7737 19.2422 17.9014 19.1209 18.0804Z" fill="black"/>
<path d="M19.9976 14.542C16.6346 14.542 13.8987 17.4029 13.8987 20.9194C13.8987 24.4358 16.6346 27.2966 19.9976 27.2966C23.3604 27.2966 26.0962 24.4357 26.0962 20.9194C26.0962 17.4029 23.3604 14.542 19.9976 14.542ZM22.0189 24.0029C21.628 24.4632 21.0865 24.7484 20.3899 24.8623V25.9009H19.6154V24.874C19.0042 24.7957 18.5077 24.5597 18.1241 24.1625C17.7405 23.7648 17.497 23.2019 17.3895 22.4772L18.7751 22.3063C18.8317 22.6027 18.9392 22.8574 19.095 23.0728C19.2516 23.2872 19.4243 23.4412 19.6154 23.5385V21.2088C18.9225 21.0012 18.4154 20.6875 18.0936 20.2669C17.7697 19.8447 17.6078 19.3354 17.6078 18.7341C17.6078 18.1255 17.7916 17.6136 18.1573 17.2014C18.5222 16.7861 19.008 16.5488 19.6154 16.4856V15.938H20.3898V16.4856C20.957 16.5565 21.4078 16.7578 21.7449 17.091C22.0795 17.4236 22.2936 17.8684 22.3865 18.4259L21.0335 18.6084C20.9498 18.1711 20.7356 17.8747 20.3898 17.7187V19.8928C21.2465 20.1322 21.8298 20.4459 22.1392 20.8285C22.4497 21.2125 22.605 21.7054 22.605 22.3064C22.605 22.9775 22.4098 23.5425 22.0189 24.0029Z" fill="black"/>
<path d="M18.3971 40.9455C9.45118 40.1744 2.33202 33.1372 1.00497 23.9821L2.60544 25.8131C2.68935 25.9091 2.80395 25.9578 2.91891 25.9578C3.02179 25.9578 3.12495 25.9188 3.20667 25.8399C3.37966 25.6728 3.39101 25.39 3.2321 25.2081L0.807015 22.4339C0.732462 22.2735 0.570191 22.1692 0.390303 22.1834C0.169007 22.2028 0.00346614 22.3972 0.00210404 22.6263C0.00137759 22.6382 0.00146834 22.6499 0.00155915 22.6616C0.00164996 22.6632 0.00137759 22.6646 0.00146839 22.6661C0.00174081 22.6687 0.00201318 22.6713 0.0021948 22.6738C0.00283044 22.6956 0.00428333 22.717 0.0079156 22.7386C0.411097 27.6448 2.4695 32.2675 5.81028 35.762C9.16695 39.2731 13.6124 41.4306 18.3275 41.8371C18.3394 41.8381 18.3511 41.8386 18.3628 41.8386C18.582 41.8386 18.7681 41.6617 18.7865 41.4279C18.8056 41.1815 18.6313 40.9657 18.3971 40.9455Z" fill="black"/>
<path d="M39.604 22.183C39.3704 22.1638 39.1642 22.3457 39.1448 22.5918C38.3708 32.4168 30.9906 40.1356 21.5966 40.9452C21.3623 40.9654 21.1881 41.1813 21.2073 41.4274C21.2254 41.6611 21.4116 41.8381 21.6308 41.8381C21.6425 41.8381 21.6542 41.8376 21.6661 41.8366C26.3816 41.4301 30.8273 39.2726 34.184 35.7615C37.5413 32.2498 39.6042 27.599 39.993 22.6656C40.0123 22.4195 39.8382 22.2035 39.604 22.183Z" fill="black"/>
<path d="M0.390393 19.655C0.40238 19.656 0.414275 19.6566 0.425989 19.6566C0.645106 19.6566 0.831169 19.4798 0.849512 19.2464C1.62364 9.42152 9.0035 1.70279 18.3971 0.892936C18.6314 0.872799 18.8056 0.656831 18.7865 0.410706C18.7673 0.164581 18.5615 -0.0190346 18.3276 0.0015792C13.6125 0.408129 9.16704 2.56571 5.81037 6.07693C2.45307 9.58853 0.390302 14.2393 0.00146775 19.1725C-0.0178741 19.4186 0.156202 19.6346 0.390393 19.655Z" fill="black"/>
<path d="M21.5966 0.892922C30.5362 1.66355 37.6518 8.69114 38.9863 17.8363L37.3921 15.9721C37.2351 15.7885 36.9662 15.7733 36.7913 15.9384C36.6165 16.1034 36.6022 16.3862 36.7591 16.5698L39.1899 19.4124C39.2609 19.5586 39.4053 19.6566 39.5683 19.6566C39.5802 19.6566 39.5921 19.6561 39.604 19.6551C39.8222 19.636 39.9861 19.4468 39.992 19.222C39.993 19.2096 39.9928 19.1974 39.9927 19.185C39.9925 19.1808 39.9933 19.1768 39.9929 19.1725C39.9925 19.1676 39.992 19.1628 39.9916 19.1579C39.9906 19.1428 39.9899 19.1277 39.9876 19.1129C39.5869 14.2018 37.5276 9.57429 34.1839 6.07691C30.8272 2.56569 26.3816 0.408116 21.6661 0.00156598C21.4307 -0.0189524 21.2264 0.164568 21.2072 0.410693C21.1881 0.656913 21.3623 0.872786 21.5966 0.892922Z" fill="black"/>
</svg>
