<svg width="70" height="23" viewBox="0 0 70 23" fill="none" xmlns="http://www.w3.org/2000/svg">
<path d="M29.0052 0.430664L24.2668 22.2564H30.0104L34.6052 0.430664H29.0052Z" fill="white"/>
<path d="M20.677 0.430664L14.7898 15.2204L12.3487 2.58452C12.0615 1.14862 10.9128 0.430664 9.76411 0.430664H0.143555L0 1.00506C2.01026 1.43583 4.16415 2.15376 5.60005 2.87171C6.46159 3.30248 6.60513 3.73324 6.89231 4.73837L11.3437 22.1128H17.3744L26.5642 0.287109H20.677V0.430664Z" fill="white"/>
<path d="M65.3335 0.430664H60.4514C59.3027 0.430664 58.4412 1.00508 58.0104 2.01021L49.5386 22.2564H55.4258L56.5745 18.9538H63.7541L64.472 22.2564H69.6412L65.3335 0.430664ZM58.4412 14.5025L61.4566 6.31791L63.1797 14.5025H58.4412Z" fill="white"/>
<path d="M42.0719 6.46156C42.0719 5.74361 42.7899 4.88208 44.5129 4.5949C45.3745 4.45131 47.5284 4.45133 50.113 5.60005L51.118 1.00515C49.8257 0.574378 47.9591 0 45.8053 0C40.2053 0 36.3283 3.01539 36.3283 7.17951C36.3283 10.3385 39.2001 12.0615 41.2104 13.0667C43.3642 14.0718 44.0822 14.7898 44.0822 15.7949C44.0822 17.2308 42.3591 17.9488 40.636 17.9488C37.7642 17.9488 36.1847 17.2308 34.8924 16.5129L33.8872 21.2513C35.1795 21.8257 37.6206 22.4 40.2052 22.4C46.0924 22.4 49.9693 19.5283 49.9693 14.9334C49.9693 9.47698 41.9283 9.04618 42.0719 6.46156Z" fill="white"/>
</svg>
