<svg width="85" height="53" viewBox="0 0 85 53" fill="none" xmlns="http://www.w3.org/2000/svg">
<path d="M58.4438 25.3379C57.9109 25.3379 57.5737 25.5692 57.3963 25.7643C56.952 26.226 56.952 26.8831 56.952 27.469V28.0194C56.952 28.6051 56.952 29.2622 57.3963 29.7419C57.5737 29.9192 57.911 30.1503 58.4438 30.1503C59.0124 30.1503 59.3492 29.9194 59.5269 29.7419C59.9712 29.2622 59.9712 28.6051 59.9712 28.0194V27.469C59.9712 26.8831 59.9712 26.226 59.5269 25.7643C59.349 25.5692 59.0122 25.3379 58.4438 25.3379Z" fill="white"/>
<path d="M39.6923 26.9538C39.6923 26.5098 39.6923 26.0305 39.2842 25.6576C39.053 25.4269 38.7337 25.3379 38.4138 25.3379C37.9342 25.3379 37.6504 25.569 37.4907 25.7463C37.2951 25.9598 37.082 26.3501 37.082 27.0608V27.2023H39.6923V26.9538Z" fill="white"/>
<path d="M69.2049 27.2025H71.833V26.9364C71.833 26.51 71.833 26.0307 71.4247 25.6401C71.1932 25.409 70.8742 25.3379 70.5543 25.3379C70.0745 25.3379 69.7904 25.5513 69.6134 25.7463C69.4354 25.9417 69.2046 26.3501 69.2046 27.0608H69.2047V27.2025H69.2049Z" fill="white"/>
<path d="M44.238 25.3379L43.0488 25.7108V29.7769C43.2084 29.8662 43.404 29.9725 43.5632 30.0262C43.7763 30.0791 44.0604 30.1503 44.2915 30.1503C44.931 30.1503 45.3035 29.8665 45.4813 29.6354C45.6412 29.4046 45.8186 28.9784 45.8186 27.9306V27.3979C45.8186 26.8474 45.8186 26.2085 45.4281 25.7822C45.1442 25.48 44.6823 25.3379 44.238 25.3379Z" fill="white"/>
<path d="M79.8272 0H4.99084C2.23449 0 0 2.23449 0 4.99084V47.7161C0 50.4725 2.23449 52.707 4.99084 52.707H79.8272C82.5835 52.707 84.818 50.4725 84.818 47.7161V4.99084C84.818 2.23449 82.5835 0 79.8272 0ZM23.9027 23.7186L22.77 24.7383L21.7502 23.6057L22.8827 22.5857L23.9027 23.7186ZM18.0822 22.7321L16.5526 21.033L18.2514 19.5033L19.7809 21.2024L18.0822 22.7321ZM19.8172 22.9193L21.347 24.6184L19.6484 26.1481L18.1188 24.4489L19.8172 22.9193ZM16.7002 22.3562L14.4351 24.3957L12.3956 22.1306L14.6607 20.0911L16.7002 22.3562ZM16.2818 23.959L18.3216 26.2243L16.0563 28.264L14.0166 25.9989L16.2818 23.959ZM17.893 27.8735L19.9325 30.1387L17.6672 32.1788L15.6277 29.9132L17.893 27.8735ZM19.5714 28.039L21.2701 26.5094L22.7999 28.2087L21.1011 29.7381L19.5714 28.039ZM22.4551 20.3537L21.3225 21.3733L20.3028 20.2405L21.4353 19.2208L22.4551 20.3537ZM20.4492 34.883C19.0618 35.6739 17.4586 36.1267 15.7528 36.1267C10.506 36.1267 6.22687 31.8475 6.22687 26.6009C6.22687 21.3541 10.506 17.0751 15.7528 17.0751C17.2483 17.0751 18.6647 17.423 19.9262 18.0418C20.1242 18.1357 20.3222 18.2393 20.52 18.3526L19.6436 19.1378L18.3259 17.7756L16.1022 19.7587L14.7812 18.317L10.6392 22.0514L13.2951 24.9777L12.2515 25.8957L14.8671 28.8271L13.8297 29.7422L17.5673 33.9026L19.7859 31.8599L21.704 34.0487C21.323 34.3454 20.907 34.6247 20.4492 34.883ZM22.5951 33.1692L21.0652 31.4705L22.7644 29.941L24.294 31.6398L22.5951 33.1692ZM24.2176 28.1035L23.1978 26.9708L24.3304 25.951L25.3503 27.0838L24.2176 28.1035ZM34.8805 28.8014C34.8805 30.1152 34.081 30.9857 32.8561 30.9857C32.3056 30.9857 31.8971 30.8259 31.4889 30.4884L31.4355 30.4352L31.3999 30.4884C31.0092 30.8083 30.5654 30.9857 30.0149 30.9857C29.4644 30.9857 28.9494 30.7906 28.5943 30.4354C28.2035 30.0449 27.9905 29.4769 27.9905 28.8018C27.9905 28.8018 27.9905 22.6935 27.9905 22.5693C28.1149 22.5693 29.1091 22.5693 29.2335 22.5693C29.2335 22.6935 29.2335 28.8018 29.2335 28.8018C29.2335 29.1392 29.3221 29.4058 29.4999 29.5651C29.6596 29.725 29.8728 29.7429 30.0149 29.7429C30.2102 29.7429 30.8138 29.6892 30.8138 28.8016C30.8138 28.8016 30.8138 22.6932 30.8138 22.5689C30.9382 22.5689 31.9327 22.5689 32.0569 22.5689C32.0569 22.6932 32.0569 28.8016 32.0569 28.8016C32.0569 29.1389 32.1455 29.4054 32.3231 29.5648C32.4832 29.7247 32.6962 29.7427 32.8561 29.7427C33.0335 29.7427 33.6374 29.6889 33.6374 28.8011C33.6374 28.8011 33.6374 22.6927 33.6374 22.5684C33.7616 22.5684 34.7561 22.5684 34.8805 22.5684C34.8805 22.693 34.8805 28.8014 34.8805 28.8014ZM40.1894 30.7016C39.6745 30.8969 39.1953 30.9678 38.7336 30.9678C37.7036 30.9678 36.9934 30.5421 36.5673 30.0804C35.9282 29.3702 35.8391 28.3399 35.8391 27.6472C35.8391 27.0436 35.8921 26.0848 36.5493 25.3389C36.9399 24.9128 37.5792 24.5399 38.4137 24.5399C39.2127 24.5399 39.8344 24.8417 40.2426 25.2678C40.8465 25.9248 40.8819 26.7419 40.8819 27.7364V28.0203H37.0817V28.1802C37.0817 28.9262 37.3127 29.3521 37.5076 29.565C37.7921 29.8849 38.325 30.0799 38.9112 30.0799C39.266 30.0799 39.5327 30.0272 39.8699 29.92C40.1541 29.8314 40.3851 29.7245 40.5801 29.6361L40.9353 30.3463C40.7399 30.4531 40.4555 30.6126 40.1894 30.7016ZM46.4398 29.9911C45.8012 30.8262 44.9126 30.9678 44.2559 30.9678C43.3682 30.9678 42.5866 30.7014 41.9296 30.3106V22.4091H43.0487V24.8419C43.2436 24.7706 43.4747 24.6818 43.6522 24.6288C43.8655 24.593 44.1669 24.5399 44.4513 24.5399C45.0903 24.5399 45.7117 24.7706 46.1559 25.1614C47.0084 25.8895 47.0616 27.0434 47.0616 27.7185C47.0616 28.4287 46.955 29.2984 46.4398 29.9911ZM54.9096 30.8612C54.7855 30.8612 53.809 30.8612 53.6847 30.8612C53.6847 30.7192 53.6847 24.6287 53.6847 24.6287C53.6847 24.2735 53.5959 24.0248 53.4185 23.8472C53.2411 23.7051 53.028 23.6696 52.8855 23.6696C52.6907 23.6696 52.0869 23.7407 52.0869 24.6287C52.0869 24.6287 52.0869 30.7192 52.0869 30.8612C51.9623 30.8612 50.9859 30.8612 50.8613 30.8612C50.8613 30.7192 50.8613 24.6287 50.8613 24.6287C50.8613 24.2735 50.7728 24.0248 50.595 23.8472C50.4179 23.7051 50.2046 23.6696 50.0626 23.6696C49.8673 23.6696 49.2633 23.7407 49.2633 24.6287C49.2633 24.6287 49.2633 30.7192 49.2633 30.8612C49.1392 30.8612 48.1627 30.8612 48.038 30.8612C48.038 30.7192 48.038 24.6288 48.038 24.6288C48.038 23.297 48.8373 22.4445 50.0626 22.4445C50.595 22.4445 51.0216 22.5867 51.4121 22.9418L51.4651 22.9773L51.5181 22.9418C51.8915 22.6045 52.3352 22.4445 52.8854 22.4445C53.4538 22.4445 53.9511 22.64 54.3061 22.9773C54.6969 23.3679 54.9095 23.9363 54.9095 24.6288C54.9096 24.6288 54.9096 30.7193 54.9096 30.8612ZM60.4506 30.1692C60.0424 30.5949 59.3672 30.9678 58.4439 30.9678C57.5561 30.9678 56.8812 30.5949 56.4732 30.1692C55.834 29.4767 55.7095 28.4999 55.7095 27.7538C55.7095 26.9905 55.834 26.0141 56.4732 25.3213C56.8812 24.895 57.5561 24.5223 58.4439 24.5223C59.3672 24.5223 60.0424 24.895 60.4506 25.3213C61.0896 26.0139 61.2139 26.9905 61.2139 27.7538C61.2139 28.4998 61.0896 29.4767 60.4506 30.1692ZM67.1803 30.8436H66.0437V26.6173C66.0437 25.6056 65.4052 25.3389 64.8723 25.3389C64.3391 25.3389 63.7891 25.5701 63.3453 25.9782V30.8436H62.2259V25.5343V24.6288L63.2562 24.6465V25.1969C63.5579 24.9838 63.8246 24.824 64.1266 24.7174C64.4995 24.5576 64.7656 24.5221 65.1383 24.5221C65.6713 24.5221 66.2214 24.6287 66.6656 25.126C67.0915 25.623 67.1803 26.2093 67.1803 26.7063V30.8436ZM72.3295 30.7193C71.8327 30.9147 71.3355 30.968 70.8738 30.968C69.8435 30.968 69.1156 30.5596 68.7072 30.0805C68.0683 29.3703 67.9613 28.34 67.9613 27.6474C67.9613 27.0258 68.0327 26.0673 68.672 25.339C69.0624 24.8952 69.7014 24.5225 70.5715 24.5225C71.3531 24.5225 71.9748 24.8241 72.383 25.268C73.0046 25.925 73.0402 26.742 73.0402 27.7365V28.0205H69.2049V28.1804C69.2049 28.9263 69.4357 29.3523 69.6487 29.5651C69.933 29.885 70.466 30.08 71.0514 30.08C71.4066 30.08 71.6731 30.0274 72.0108 29.9202C72.2946 29.8315 72.5253 29.7429 72.7387 29.6362L73.0936 30.3638C72.8978 30.471 72.5957 30.6126 72.3295 30.7193ZM79.1841 24.6465L76.7515 31.9625C76.6627 32.2824 76.4319 32.815 76.1653 33.1163C75.8456 33.4719 75.4197 33.6316 74.9399 33.6316C74.6023 33.6316 74.283 33.5603 73.9633 33.3831C73.7682 33.2583 73.5727 33.1344 73.4481 32.9923L73.9812 32.3173C74.07 32.4066 74.1941 32.4956 74.3013 32.5658C74.4785 32.6729 74.6917 32.7262 74.8867 32.7262C75.2244 32.7262 75.4374 32.5489 75.5441 32.4066C75.6682 32.2468 75.7924 31.874 75.8815 31.6431L76.0235 31.1458L73.4131 24.6469H74.6381L76.2008 28.5355C76.361 28.908 76.5207 29.477 76.5563 29.6364H76.6092C76.8046 28.8904 76.8939 28.6414 77.0536 28.1802L78.172 24.6465H79.1841Z" fill="white"/>
</svg>
